<svg enable-background="new -268 253.9 258 106.1" height="106.1" viewBox="-268 253.9 258 106.1" width="258" xmlns="http://www.w3.org/2000/svg"><path d="m-92.7 279.6c-.5-.9-1.1-1.6-2.2-1.9v-.6c.7 0 3 .1 3.5.1s2.7-.1 3.4-.1v.5c-.7.1-1.3.5-1.3 1.1 0 .5.3 1.1.8 2.2l5 11.4 4.7-11.4c.4-.9.7-1.7.7-2.1 0-.7-.6-1-1.4-1.2v-.6c.7 0 2.1.1 2.6.1s2.2-.1 3-.1v.6c-1.2.3-1.9 1-2.6 2.5l-7 16.5h-1.5s-7.7-17-7.7-17zm-67.7 16.5c.9-.2 1.6-.7 1.6-1.7v-15.2c0-1-.6-1.4-1.6-1.7v-.6c.5 0 2.5.1 3.1.1s2.7-.1 3.3-.1v.6c-.9.2-1.6.7-1.6 1.7v6.3h11.3v-6.3c0-1-.6-1.5-1.6-1.7v-.6c.5 0 2.6.1 3.2.1.5 0 2.6-.1 3.1-.1v.6c-.9.2-1.6.7-1.6 1.7v15.2c0 1 .7 1.4 1.6 1.7v.5h-6.3v-.5c.9-.2 1.6-.7 1.6-1.7v-7.2h-11.3v7.2c0 1 .7 1.4 1.6 1.7v.5h-6.4zm130.2 0c1.2-.2 1.8-.7 1.8-1.8v-15c0-1-.7-1.5-1.8-1.7v-.6c.7 0 2.8.1 3.3.1.9 0 3.6-.2 5.7-.2 6.9 0 11.2 3.9 11.2 9.8 0 5.7-4.4 10-11.5 10-2 0-4.5-.2-5.5-.2-.6 0-2.5.1-3.2.1zm4.9-1c.7.1 2 .2 3.1.2 5.9 0 8.8-3.5 8.8-8.4 0-5-3.2-8.7-8.7-8.7-1.1 0-2.5.1-3.3.2zm-83.2-.8c0 1 .7 1.6 1.8 1.8v.6c-.7 0-2.8-.1-3.3-.1s-2.6.1-3.3.1v-.6c1.1-.2 1.8-.7 1.8-1.8v-14.9c0-.9-.5-1.5-1.8-1.7v-.6c.7 0 2.7.1 3.3.1.9 0 3.6-.2 4.7-.2 4.7 0 7.3 2 7.3 5.2 0 2.6-2 4.4-4.9 5 0 0 .7.4 1.3 1.2.8.9 3.1 4.2 4 5.3s2 2.3 3.3 2.4v.5c-.6.1-1.6.3-2.3.3-1.6 0-2.9-.6-4.1-2-1-1.3-2.9-4-4-5.4-.7-.8-1.5-1.5-3-1.8-.3-.1-.6-.1-.9-.1zm0-7.9c.7.1 1.5.1 2.4.1 3.6 0 4.7-2.1 4.7-3.9 0-2.6-1.8-4.3-4.9-4.3-.7 0-1.6.1-2.2.2zm61.4 7.9c0 1 .7 1.6 1.8 1.8v.6c-.7 0-2.8-.1-3.3-.1-.6 0-2.6.1-3.3.1v-.6c1.1-.2 1.8-.7 1.8-1.8v-14.9c0-.9-.5-1.5-1.7-1.7v-.6c.7 0 2.7.1 3.3.1.9 0 3.6-.2 4.7-.2 4.7 0 7.3 2 7.3 5.2 0 2.6-2 4.4-4.9 5 0 0 .7.4 1.3 1.2.8.9 3.1 4.2 4 5.3s2.1 2.3 3.3 2.4v.5c-.6.1-1.6.3-2.3.3-1.6 0-2.9-.6-4.1-2-1-1.3-2.9-4-4-5.4-.7-.8-1.5-1.5-3-1.8-.3-.1-.6-.1-.9-.1zm0-7.9c.7.1 1.5.1 2.4.1 3.6 0 4.7-2.1 4.7-3.9 0-2.6-1.8-4.3-4.9-4.3-.7 0-1.6.1-2.3.2 0 0 .1 7.9.1 7.9zm-89.6 9.7c1.2-.3 1.9-1.1 2.3-2.1l6.2-15c.3-.7.6-1.9.6-1.9h1.8s.3 1.3.6 1.9l6.6 15.1c.5 1 1 1.8 2.3 2.1v.5h-6.7v-.5c.9-.3 1.3-.7 1.3-1.2 0-.4-.2-.8-.4-1.3l-1.4-3.3h-7.3l-1.3 3.3c-.2.4-.3.9-.3 1.2 0 .6.3.9 1.4 1.3v.5h-5.5zm12.3-7.3-3.1-7.3-2.9 7.3zm49.4 7.3c1.2-.3 2-1.1 2.3-2.1l6.2-15c.3-.7.6-1.9.6-1.9h1.8s.3 1.3.6 1.9l6.6 15.1c.5 1 .9 1.8 2.3 2.1v.5h-6.7v-.5c.9-.3 1.3-.7 1.3-1.2 0-.4-.2-.8-.4-1.3l-1.4-3.3h-7.3l-1.3 3.3c-.2.4-.3.9-.3 1.2 0 .6.3.9 1.4 1.3v.5h-5.6zm12.4-7.3-3.1-7.3-2.9 7.3zm-95.9 28.8c.7-.1.9-.7.9-1v-9.8c0-.4-.3-.8-.9-.9v-.5h7.7c.2 0 .6 0 .7-.2h.5l-.1 2.5h-.5c-.3-.8-.8-1.2-1.9-1.2h-3.5v4.5h3.1c.5 0 .8-.3 1.1-.7h.6v2.5h-.5c-.3-.5-.7-.7-1.1-.7h-3.1v5h3.4c1.2 0 1.8-.5 2.2-1.2l.6.1-.3 2.2c-1.2-.1-1.9-.1-3.2-.1h-5.9zm11.1 0c.7-.2 1.2-.7 1.7-1.3l2-2.2-1.8-2.5c-.5-.7-.9-1-1.5-1.2v-.5h3.7v.5c-.3.1-.4.3-.4.4s.1.3.2.5l1 1.4 1.2-1.4c.2-.2.2-.4.2-.6 0-.1-.2-.3-.5-.3v-.5h3.2v.5c-.6.2-1.3.7-1.9 1.4l-1.6 1.9 2 2.8c.4.5.8.9 1.5 1.2v.5h-3.8v-.5c.6-.3.4-.6.1-.9l-1.2-1.7-1.4 1.7c-.2.2-.3.4-.3.5 0 .2.2.4.5.5v.5h-3.1zm11.7-6.8h-1.2v-.7l1.2-.4c.5-.5.8-1.2 1-2.2h1v2.4h2.3v.9h-2.3v5c0 .9.4 1.2.7 1.2.6 0 .8-.2 1.2-.7l.5.4c-.3.6-1.1 1.5-2.3 1.5-1 0-2.1-.6-2.1-2.4zm13.5 6c-.6.7-1.5 1.4-3.2 1.4-2.9 0-4.5-1.8-4.5-4.3 0-2.6 1.9-4.3 4.2-4.3 2.2 0 3.7 1.4 3.5 3.2 0 .2 0 .4-.1.6h-5.5c-.2 2 .8 3.6 2.6 3.6.8 0 1.8-.2 2.3-.7 0 0 .7.5.7.5zm-2.1-4.2c0-.8-.3-2-1.4-2-1.2 0-1.7 1-1.9 2zm4 5c.5-.2.8-.4.8-.7v-4.9c0-.5-.2-.7-.9-.9v-.5l2.5-.9h.4l.1.9c.7-.6 1.6-.9 2.6-.9 2 0 3 1.2 3 2.6v4.7c0 .3.3.5.8.7v.5h-3.7v-.5c.5-.2.8-.4.8-.7v-4c0-1.4-.5-2-1.7-2-.7 0-1.4.3-1.8 1v5c0 .3.3.5.8.7v.5h-3.7zm11.2-1.7h.5c.7.9 1.2 1.5 2.2 1.5 1.1 0 1.6-.5 1.6-1 0-.4-.2-.7-.6-.8l-2.5-1.1c-.8-.4-1.4-1.1-1.4-2.1 0-1.7 1.6-2.5 3.3-2.5.8 0 1.9.2 2.7.5v1.9h-.5c-.5-.8-1.2-1.4-2.1-1.4s-1.4.6-1.4 1.1.2.8.7 1.1l2.5 1.1c.5.3 1.1.9 1.1 1.9 0 1.5-1.4 2.4-3.3 2.4-.8 0-1.9-.2-2.7-.5zm8.1 1.7c.5-.2.8-.4.8-.7v-4.9c0-.5-.2-.7-.9-.9v-.5l2.5-.9h.5v7.3c0 .3.3.5.8.7v.5h-3.7zm.7-10.3c0-.6.5-1 1-1 .6 0 1 .5 1 1s-.5 1-1 1c-.5.1-1-.4-1-1m9 2.5c2.6 0 4.5 1.9 4.5 4.3 0 2.5-1.8 4.3-4.5 4.3-2.6 0-4.5-1.8-4.5-4.3s1.9-4.3 4.5-4.3m2.3 4.3c0-1.7-.7-3.3-2.3-3.3-1.7 0-2.3 1.8-2.3 3.3 0 1.7.7 3.4 2.3 3.4 1.6-.2 2.3-1.9 2.3-3.4m3.9 3.5c.5-.2.8-.4.8-.7v-4.9c0-.5-.2-.7-.9-.9v-.5l2.5-.9h.4l.1.9c.7-.6 1.6-.9 2.6-.9 2 0 3 1.2 3 2.6v4.7c0 .3.3.5.8.7v.5h-3.7v-.5c.5-.2.8-.4.8-.7v-4c0-1.4-.5-2-1.7-2-.7 0-1.4.3-1.8 1v5c0 .3.3.5.8.7v.5h-3.7zm18-2.3h.6c.2.7.7 1.2 1 1.4.6.4 1.5.6 2.1.6 1.5 0 2.6-.6 2.6-2 0-.7-.2-1.2-.7-1.6-1.1-.7-2.5-1.2-3.7-1.8-1.1-.6-2-1.5-2-3.2 0-2.6 2.2-3.6 4.7-3.6 1 0 2.1.3 3.3.2l.1 2.6h-.5c-.5-1.2-1.8-1.9-3.1-1.9-1.5 0-2.5.8-2.5 2 0 .9.5 1.5 1.1 2 1.1.7 2.7 1.2 3.8 1.9.8.6 1.5 1.4 1.5 2.7 0 2.4-1.9 3.8-4.5 3.8-1.2 0-2.3-.3-3.6-.7zm18.1 1.5c-.6.7-1.7 1.6-3.3 1.6-2.9 0-4.5-1.8-4.5-4.3 0-2.7 2-4.3 4.5-4.3.8 0 2 .2 3 .4v1.9h-.5c-.4-.8-1.2-1.4-2.2-1.4-1.5 0-2.5 1.3-2.5 3.2 0 2 1.2 3.3 2.8 3.3.8 0 1.8-.3 2.4-.9 0 0 .3.5.3.5zm1.5.8c.5-.2.8-.4.8-.7v-10.1c0-.5-.2-.7-.9-.9v-.5l2.5-.9h.5v6.1c.7-.6 1.6-.9 2.6-.9 2 0 3 1.2 3 2.6v4.7c0 .3.3.5.8.7v.5h-3.7v-.5c.5-.2.8-.4.8-.7v-4c0-1.4-.5-2-1.7-2-.7 0-1.4.3-1.8 1v5c0 .3.3.5.8.7v.5h-3.7zm15.2-7.8c2.6 0 4.5 1.9 4.5 4.3 0 2.5-1.8 4.3-4.5 4.3-2.6 0-4.5-1.8-4.5-4.3s1.9-4.3 4.5-4.3m2.3 4.3c0-1.7-.7-3.3-2.3-3.3s-2.3 1.8-2.3 3.3c0 1.7.7 3.4 2.3 3.4 1.5-.2 2.3-1.9 2.3-3.4m8.3-4.3c2.6 0 4.5 1.9 4.5 4.3 0 2.5-1.8 4.3-4.5 4.3-2.6 0-4.5-1.8-4.5-4.3s1.9-4.3 4.5-4.3m2.3 4.3c0-1.7-.7-3.3-2.3-3.3-1.7 0-2.3 1.8-2.3 3.3 0 1.7.7 3.4 2.3 3.4 1.7-.1 2.3-1.9 2.3-3.4m3.9 3.5c.5-.2.8-.4.8-.7v-10.1c0-.5-.2-.7-.9-.9v-.5l2.5-.9h.5v12.5c0 .3.3.5.8.7v.5h-3.7z" fill="#010101"/><path d="m-179.7 256.3v36.8c0 19.2-6.5 50.4-42.9 64.3-36.3-13.9-42.9-45.1-42.9-64.3v-36.8z" fill="#fff"/><path d="m-187.6 297.4-.1.1c.4.4-.2 1.9-1.3 1.8l-.2.7c.7.2 1.3.3 1.7.5 0 0 1.7-2.5 1.3-2.9-.2-.3-.7-.4-1.4-.2m-16.2 1.8c-1 .1-1.7-1.1-1.5-1.6-1.2-.4-1.4-.3-1.9-.1s1.3 2.8 1.3 2.8c.5-.2 1.2-.4 2.1-.6l-.2-.5z" fill="#00498f"/><path d="m-203.8 299.8c-.9.2-1.7.4-2.1.6 0 0-1.9-2.6-1.3-2.8.5-.2.7-.3 1.9.1-.2.5.5 1.8 1.5 1.6h-.1zm16.2.7c-.3-.2-.9-.4-1.6-.5l.2-.7c1.1 0 1.7-1.4 1.3-1.8 0 0 .1 0 .1-.1.7-.2 1.2 0 1.3.2.4.4-1.3 2.9-1.3 2.9zm-35.1 13.3-27.1 24.8v.2c.2.3.5.6.8.9 2.8 3.1 6.1 6.1 9.9 8.8 4.7 3.4 10.2 6.4 16.6 8.8 6.4-2.4 11.8-5.5 16.4-8.8 3.7-2.7 7-5.7 9.8-8.8.3-.4.6-.7.9-1.1zm17.9 20.8c-.8.9-1.1 1.3-2.7 1.3 1.1 1.1 1 2.7 1 2.7-.1 4.2-4.3 6.4-11.8 7.2-.6.2-1.1.3-1.7.4 0 1.1 1.2.6 1.2 1.4l1.5 1.4c.8.3 1.2.5 1.2 1 0 1-2.8 1.9-6.2 1.9s-6.2-.8-6.2-1.9c0-.4.5-1 1.3-1.2l1.2-1.1c-.1-.9 1.3-.4 1.3-1.5-.7-.1-1.4-.2-2-.4h-.2c-1.1-.1-5.7-1-8.5-5.6-1.6-2.6-2.3-2.7-2.3-2.7s-1.3-.7-1.3-1.5c0-.4.7-.7 1.7-.8.2-.1.5-.1.9-.2v-.5h-.6c-.7-.2-1.2-.4-1.4-1.3-.2-1 .9-2.1 1.4-3 .5-.8.5-1.2.7-2 .8-.3.2 1.2.7 2 .6.9 1.6 2 1.4 3-.1.9-.7 1.1-1.4 1.3-.2.1-.4 0-.5 0v.5c.4 0 .8.1 1 .1 1.1.1 1.8.4 1.8.8v.1c-.4 2.8 1.9 2.9 1.9 2.9 1-1.8 3.5-3.1 6.6-3.6 0-.4.4-.8 1-1.1v-.8c-.9-.2-1.4-.7-1.4-1.5s.6-1.4 1.4-1.7c.1-.1.2-.3.5-.5 0-.4.4-1.6.6-1.7.3.1.6 1.3.6 1.7.3.1.4.2.6.5.9.3 1.5 1 1.5 1.8 0 .7-.6 1.3-1.4 1.5v.7c.6.3 1 .8 1 1.1 4.1.6 7.1 2.8 7.1 5.4 0 .2 0 .5-.1.7 0 0 1 .5 1.9.5 1.9 0 3.2-1.2 3.2-3.6 0-1.6-1-2.5-2.3-2.5-1.4 0-2 1.1-1.9 2.2 0 .7.5 1.2 1.2 1.1.3 0 .6-.3.7-.7.1-.5-.1-.8-.7-1.1 0 0 0-.4.7-.4.6 0 1.1.6 1.1 1.7 0 1.3-.9 1.9-1.9 1.9-1.4 0-2.6-1.1-2.6-2.8 0-2.1 1.4-3.7 3.4-3.6 0 0 3.2.6 4.4.1 1.7-.3 1.9-.1 1.4.4m-50.9-35.4c-1 .1-1.7-1.1-1.5-1.6-1.3-.4-1.4-.3-2-.1-.5.3 1.4 2.9 1.4 2.9.4-.2 1.2-.4 2.1-.6l-.1-.5zm16.2-1.8-.1.1c.4.4-.2 1.9-1.3 1.8l-.2.7c.7.2 1.3.3 1.7.5 0 0 1.7-2.5 1.3-2.9-.3-.3-.8-.4-1.4-.2" fill="#00498f"/><path d="m-179.8 281.1c-.4 1.5-1.7 2.7-3.6 3.4-1 .4-2.2.6-3.5.6s-2.5-.2-3.5-.6c-1.9-.7-3.3-2-3.6-3.4-.4 1.5-1.7 2.7-3.7 3.4-1 .4-2.2.6-3.5.6s-2.5-.2-3.5-.6c-1.9-.7-3.3-2-3.6-3.4-.4 1.5-1.7 2.7-3.7 3.4-1 .4-2.2.6-3.5.6s-2.5-.2-3.5-.6c-1.9-.7-3.3-2-3.6-3.4-.4 1.5-1.7 2.7-3.7 3.4-1 .4-2.2.6-3.5.6s-2.5-.2-3.5-.6c-1.9-.7-3.3-2-3.6-3.4-.4 1.5-1.7 2.7-3.7 3.4-1 .4-2.2.6-3.5.6s-2.5-.2-3.5-.6c-1.9-.7-3.3-1.9-3.6-3.4-.4 1.5-1.7 2.7-3.6 3.4-1 .4-2.2.6-3.5.6s-2.5-.2-3.5-.6c-1.9-.7-3.3-2-3.6-3.4v16.1c0 .4 0 .9.1 1.3 0 .4 0 .7.1 1.1 0 .4.1.7.1 1.1.2 2.3.5 4.6 1 7.1 1.3 6.8 3.6 14.1 7.5 21.2l23.6-21.5 8-7.1 1.2-1.1 1.1-1 1.1 1 1.2 1.1 8 7.1 23.9 21.2c3.9-7 6.1-14.3 7.3-21.2.4-2.4.7-4.8.9-7.1 0-.4.1-.7.1-1.1.2-.4.2-.7.3-1.1 0-.4 0-.9.1-1.3v-.9-.9-.9zm-58.8 19.6c.1.1.2.2.2.3-.5 5.9-1.8 9.7-3 10.6-1.1.8-2.4 1.6-7.3 1.6-5.5 0-6.6-1.2-7.6-2.5-.7-.9-2.4-4-2.7-9.7 0-.1 0-.2.1-.3h.1s-1.5-1.8-1.5-3.2 2.2-1.1 2.6-1c-.1-.3-.1-.6.1-.7-.4-.1-1.1-1.5-.5-1.7-.5-.1-1.3-1.9-.3-1.7h.2s-.4-.3-.4-.7c0-.6.2-.7.2-1.4.5.4.7.5 1 .9.2.3 0 .8 0 .8v.1c.1-.1.1-.2.2-.3.7-.8 1 1.2.7 1.5.6-.1.9 1.5.7 1.8.5-.2.8 1.3.5 1.6.6 0 1 1.6 0 2.3h.1l.2.7c.7-.1 1.5-.2 2.4-.3h.1l-.3-2.1h.1c-1.1-.2-1.5-1.8-1-2.1-.3-.2-.7-1.7-.1-1.7-.4-.1-.8-1.7-.2-1.8-.4-.2-.9-2.1.1-1.7.1 0 .2.1.3.1v-.1s-.4-.4-.3-.7c.1-.6.3-.7.5-1.3.2.6.4.7.6 1.2.2.3-.1.8-.1.8l.2-.2c.8-.6.8 1.4.5 1.6.6-.1.5 1.5.2 1.7.6-.1.5 1.5.3 1.7.6.4.7 2-.6 2.5h.1l.3 2.1c.9-.1 2-.1 3-.1v-2.3c-1.2-.4-1.4-2-.8-2.2-.3-.3-.6-1.7.1-1.7-.4-.2-.6-1.8 0-1.8-.4-.2-.7-2.2.3-1.7.1.1.2.1.3.2 0 0-.4-.4-.2-.8.2-.6.4-.7.7-1.2.4.5.6.7.8 1.2.1.4-.3.8-.3.8.1 0 .2-.1.3-.1 1-.5.7 1.5.3 1.7.6 0 .4 1.6 0 1.8.6 0 .4 1.5 0 1.8.6.2.6 1.8-.7 2.2v2.4c1.1 0 2.2.1 3.2.1l.2-2.2c-1.1-.5-1-2.1-.4-2.2-.3-.3-.3-1.8.2-1.7-.3-.2-.3-1.8.2-1.7-.3-.6-.3-2.6.6-2 .1 0 .1.1.2.2v-.1s-.3-.5-.1-.8c.3-.5.4-.6.9-1.1.2.6.4.7.5 1.3 0 .4-.4.7-.4.7.1 0 .2-.1.3-.1.9-.4.5 1.6.1 1.7.6.1.2 1.6-.2 1.8.6.1.2 1.5-.1 1.7.5.3.1 1.8-1 2.1l-.2 2.1c.9.1 1.8.2 2.5.3l.3-.8c-1-.8-.6-2.3 0-2.3-.2-.3 0-1.8.6-1.6-.2-.3 0-1.9.5-1.7-.3-.3.1-2.3.7-1.5.1.1.1.2.2.2 0 0-.2-.5 0-.8.3-.5.5-.5 1-.9.1.7.2.8.2 1.4 0 .4-.4.7-.4.7.1 0 .2 0 .3-.1 1-.1.2 1.6-.2 1.7.5.2-.1 1.6-.5 1.7-.1.2-.1.4-.1.7.8-.1 1.9.1 1.9 1.1 0 1.3-1.5 3.1-1.5 3.2zm51.9 0c.1.1.2.2.2.3-.5 5.9-1.8 9.7-3 10.6-1.1.8-2.4 1.6-7.3 1.6-5.5 0-6.6-1.2-7.6-2.5-.7-.9-2.4-4-2.7-9.7 0-.1 0-.2.1-.3h.1s-1.5-1.8-1.5-3.2 2.2-1.1 2.6-1c-.1-.3-.1-.6.1-.7-.3-.1-1-1.5-.5-1.7-.4-.1-1.2-1.8-.2-1.7h.2s-.4-.3-.4-.7c0-.6.2-.7.2-1.4.5.4.7.5 1 .9.2.3 0 .8 0 .8v.1c.1-.1.1-.2.2-.3.7-.8 1 1.2.7 1.5.5-.2.8 1.4.5 1.7.5-.2.8 1.3.5 1.6.6 0 1 1.6-.1 2.3h.1l.2.7c.7-.1 1.5-.2 2.4-.3h.1l-.3-2.1h.1c-1.1-.2-1.5-1.8-1-2.1-.3-.2-.7-1.7-.1-1.7-.3-.1-.8-1.7-.2-1.8-.4-.2-.9-2.1.1-1.7.1 0 .2.1.3.1v-.1s-.4-.4-.3-.7c.1-.6.3-.7.5-1.3.4.5.6.6.9 1.1.2.3-.1.8-.1.8l.2-.2c.8-.6.8 1.4.5 1.6.6-.1.5 1.5.2 1.7.6-.1.5 1.5.3 1.7.6.2.7 1.8-.5 2.3h.1l.3 2.1c.9-.1 2-.1 3-.1v-2.4c-1.2-.4-1.4-2-.8-2.2-.3-.3-.6-1.7.1-1.7-.4-.2-.6-1.8 0-1.8-.4-.2-.7-2.2.3-1.7.1.1.2.1.3.2 0 0-.4-.4-.2-.8.1-.2.3-.3.6-.8.4.5.6.7.8 1.2.1.3-.3.7-.3.7.1 0 .2-.1.3-.1 1-.5.7 1.5.3 1.7.6 0 .4 1.6 0 1.8.6 0 .4 1.5 0 1.8.6.2.6 1.8-.7 2.2v2.4c1.1 0 2.2.1 3.2.1l.2-2.2c-1.1-.5-1-2.1-.4-2.2-.3-.3-.3-1.8.2-1.7-.3-.2-.3-1.8.2-1.7-.3-.4-.3-2.4.5-1.8.1.1.2.1.3.2v-.1s-.3-.5-.1-.8c.3-.5.4-.6.9-1.1.2.6.4.7.5 1.3 0 .4-.4.7-.4.7.1 0 .2-.1.3-.1.9-.4.5 1.6.1 1.7.6.1.2 1.6-.2 1.8.6.1.2 1.5-.2 1.7.5.3.1 1.8-1 2.1l-.3 2.1c.9.1 1.8.2 2.5.3l.3-.8c-1-.8-.6-2.3 0-2.3-.2-.3 0-1.8.6-1.6-.2-.3 0-1.9.5-1.7-.3-.3.1-2.3.7-1.5.1.1.1.2.2.2 0 0-.2-.5 0-.8.3-.5.5-.5 1-.9.1.7.2.8.2 1.4 0 .4-.4.7-.4.7.1 0 .2 0 .3-.1 1-.1.2 1.6-.2 1.7.5.2-.1 1.6-.5 1.7.2.1.2.3.2.6.8-.1 1.9.1 1.9 1.1-.2 1.4-1.6 3.2-1.7 3.3z" fill="#00498f"/><path d="m-250.1 260.2c-.1 0-.1 0 0 0zm55.3 0h-.1zm-27.6 0c-.1 0-.1 0 0 0z" fill="#a80533"/><path d="m-265.5 277.2c.5 3.1 3.5 5.6 7.2 5.6 3.6 0 6.6-2.4 7.1-5.5.5 3.2 3.5 5.5 7.1 5.5s6.6-2.5 7.1-5.6c.5 3.2 3.5 5.6 7.2 5.6 3.6 0 6.6-2.5 7.1-5.6.5 3.2 3.5 5.6 7.2 5.6 3.6 0 6.6-2.5 7.1-5.6.5 3.2 3.5 5.6 7.2 5.6 3.6 0 6.6-2.5 7.1-5.6.5 3.2 3.5 5.6 7.2 5.6 3.6 0 6.6-2.4 7.1-5.5v-20.9h-85.7zm57.3-4.9c0-.5.3-.8.8-.8h1.1v-6.4h-1.1c-.4 0-.8-.4-.8-.8v-.8c0-.5.3-.8.8-.8h1.1v-1.5h1v-1l.7.3v-.3c.6.2.5.4 1.7.3.8 0 4.1-1.8 6.6-1 .6.2.9.4 1.5.7.6-.3.9-.5 1.5-.7 2.5-.8 5.9.9 6.6 1 1.2.1 1.3-.1 1.7-.3v.4l.7-.3v.9h1v1.5h1.1c.4 0 .8.4.8.8v.8c0 .4-.3.8-.8.8h-1.1v6.4h1.1c.4 0 .8.4.8.8v.8c0 .5-.3.8-.8.8h-1.1v1.5h-10.5c-.3.2-.4.4-.7.5h-.3-.1c-.4 0-.6-.2-.9-.5l-.1-.1h-10.4v-1.5h-1.1c-.4 0-.8-.4-.8-.8zm-27.7 0c0-.5.3-.8.8-.8h1.1v-6.4h-1.1c-.4 0-.8-.4-.8-.8v-.8c0-.5.3-.8.8-.8h1.1v-1.5h1v-1l.7.3v-.3c.6.2.5.4 1.7.3.8 0 4.1-1.8 6.6-1 .6.2.9.4 1.5.7.6-.3.9-.5 1.5-.7 2.5-.8 5.9.9 6.6 1 1.2.1 1.3-.1 1.7-.3v.4l.3-.2.4-.2v.9h1v1.5h1.1c.4 0 .8.4.8.8v.8c0 .4-.3.8-.8.8h-1.1v6.4h1.1c.4 0 .8.4.8.8v.8c0 .5-.3.8-.8.8h-1.1v1.5h-10.5c-.2.2-.4.4-.6.5h-.3-.1c-.4 0-.6-.2-.9-.5l-.1-.1h-10.5v-1.5h-1.1c-.4 0-.8-.4-.8-.8zm-27.7 0c0-.5.3-.8.8-.8h1.1v-6.5h-1.1c-.4 0-.8-.4-.8-.8v-.8c0-.5.3-.8.8-.8h1.1v-1.5h1v-.9l.7.4v-.4c.6.2.5.4 1.7.3.8 0 4.1-1.8 6.6-1 .6.2.9.4 1.5.7.6-.3.9-.5 1.5-.7 2.5-.8 5.9.9 6.6 1 1.2.1 1.3-.1 1.7-.3v.4l.7-.3v.9h1v1.5h1.1c.4 0 .8.4.8.8v.8c0 .4-.3.8-.8.8h-1.1v6.4h1.1c.4 0 .8.4.8.8v.8c0 .5-.3.8-.8.8h-1.1v1.5h-10.5c-.3.2-.4.4-.7.5h-.3c-.5 0-.6-.2-1-.6h-10.5v-1.5h-1.1c-.4 0-.8-.4-.8-.8z" fill="#b30838"/><path d="m-250.2 275.9c.5 0 .6-.3 1-.6h10.5v-1.5h1.1c.4 0 .8-.4.8-.8v-.8c0-.5-.3-.8-.8-.8h-1.1v-6.4h1.1c.4 0 .8-.4.8-.8v-.8c0-.5-.3-.8-.8-.8h-1.1v-1.5h-1v-.9l-.7.3v12.8c-.6 0-1.1.2-2.1.1-1.3-.1-3.5-1.6-6.1-1-.9.2-1.3.6-1.6 1-.2-.4-.9-.8-1.7-1-2.6-.6-4.8.8-6.1 1-1 .1-1.5-.1-2.1-.1v-12.8l-.6-.3v.9h-1v1.5h-1.1c-.4 0-.8.4-.8.8v.8c0 .4.3.8.8.8h1.1v6.4h-1.1c-.4 0-.8.4-.8.8v.8c0 .5.3.8.8.8h1.1v1.5h10.5c.4.4.5.6 1 .6m55.4 0c.5 0 .6-.3 1-.6h10.5v-1.5h1.1c.4 0 .8-.4.8-.8v-.8c0-.5-.3-.8-.8-.8h-1.1v-6.4h1.1c.4 0 .8-.4.8-.8v-.8c0-.5-.3-.8-.8-.8h-1.1v-1.5h-1v-.9l-.7.4v12.8c-.6 0-1.1.2-2.1.1-1.3-.1-3.5-1.6-6.1-1-.9.2-1.4.6-1.6 1-.3-.4-.9-.8-1.7-1-2.6-.6-4.8.8-6.1 1-1 .1-1.5-.1-2.1-.1v-12.8l-.6-.4v.9h-1v1.5h-1.1c-.4 0-.8.4-.8.8v.8c0 .4.3.8.8.8h1.1v6.4h-1.1c-.4 0-.8.4-.8.8v.8c0 .5.3.8.8.8h1.1v1.5h10.5c.4.4.5.6 1 .6m-27.7 0c.5 0 .6-.3 1-.6h10.5v-1.5h1.1c.4 0 .8-.4.8-.8v-.8c0-.5-.3-.8-.8-.8h-1.1v-6.4h1.1c.4 0 .8-.4.8-.8v-.8c0-.5-.3-.8-.8-.8h-1.1v-1.5h-1v-.9l-.7.3v12.8c-.6 0-1.1.2-2.1.1-1.3-.1-3.5-1.6-6.1-1-.9.2-1.4.6-1.6 1-.2-.4-.9-.8-1.7-1-2.6-.6-4.8.8-6.1 1-1 .1-1.5-.1-2.1-.1v-12.8l-.6-.3v.9h-1v1.5h-1.1c-.4 0-.8.4-.8.8v.8c0 .4.3.8.8.8h1.1v6.4h-1.1c-.4 0-.8.4-.8.8v.8c0 .5.3.8.8.8h1.1v1.5h10.5c.4.4.5.6 1 .6m16.7 58.5c-1.2.5-4.4-.1-4.4-.1-2-.1-3.4 1.5-3.4 3.6 0 1.7 1.2 2.8 2.6 2.8 1 0 1.9-.7 1.9-1.9 0-1-.5-1.7-1.1-1.7-.7 0-.7.4-.7.4.5.3.8.6.7 1.1-.1.4-.4.6-.7.7-.7 0-1.1-.4-1.2-1.1-.1-1.1.6-2.2 1.9-2.2s2.3.9 2.3 2.5c0 2.4-1.3 3.6-3.2 3.6-.9 0-1.9-.5-1.9-.5 0-.2.1-.5.1-.7 0-2.6-3-4.8-7.1-5.4 0-.4-.4-.8-1-1.1v-.7c.8-.3 1.4-.8 1.4-1.5 0-.8-.6-1.5-1.5-1.8-.1-.2-.3-.4-.6-.5 0-.4-.3-1.6-.6-1.7-.3.1-.6 1.3-.6 1.7-.4.2-.5.4-.5.5-.9.3-1.4 1-1.4 1.7 0 .8.5 1.3 1.4 1.5h.1-.1v.8c-.6.3-1 .8-1 1.1-3.1.4-5.5 1.8-6.6 3.6 0 0-2.2-.1-1.9-2.9v-.1c0-.4-.8-.7-1.8-.8-.3-.1-.6-.1-1-.1v-.5h.5c.7-.2 1.2-.4 1.4-1.3.2-1-.9-2.1-1.4-3-.5-.8 0-2.3-.7-2-.3.8-.2 1.2-.7 2-.6.9-1.6 2-1.4 3 .1.9.7 1.1 1.4 1.3.2.1.4 0 .6 0v.5c-.3 0-.7.1-.9.2-1 .1-1.7.4-1.7.8 0 .8 1.3 1.5 1.3 1.5s.7.2 2.3 2.7c2.9 4.6 7.4 5.4 8.5 5.6h.2c.6.2 1.3.3 2 .4 0 1.1-1.4.6-1.3 1.5l-1.2 1.1c-.9.2-1.3.7-1.3 1.2 0 1 2.8 1.9 6.2 1.9s6.2-.8 6.2-1.9c0-.4-.3-.6-1.2-1l-1.5-1.4c0-.8-1.2-.3-1.2-1.4.6-.1 1.1-.2 1.7-.4 7.5-.8 11.7-3 11.8-7.2 0 0 .1-1.7-1-2.7 1.6 0 1.9-.4 2.7-1.3.1-.7-.1-.9-1.4-.4m-32.8-33.7c.1-.1 1.5-1.8 1.5-3.2 0-1-1.1-1.1-1.9-1.1.1-.3 0-.5-.2-.6.4-.1 1-1.5.5-1.7.4-.1 1.2-1.8.2-1.7-.1 0-.2 0-.3.1 0 0 .4-.3.4-.7 0-.6-.2-.7-.2-1.4-.5.4-.7.5-1 .9-.2.3 0 .8 0 .8l-.2-.2c-.7-.8-1 1.2-.7 1.5-.5-.2-.7 1.4-.5 1.7-.5-.2-.8 1.3-.6 1.6-.6 0-1 1.5 0 2.3l-.3.8c-.7-.1-1.6-.2-2.5-.3l.4-2.1c1.1-.2 1.5-1.8 1-2.1.3-.2.7-1.7.1-1.7.3-.1.8-1.7.2-1.8.4-.2.9-2.1-.1-1.7-.1 0-.2.1-.3.1 0 0 .4-.4.3-.7-.1-.6-.3-.7-.5-1.3-.3.4-.5.5-.7 1-.2.3.1.8.1.8v.1c-.1-.1-.1-.2-.2-.2-.9-.6-.9 1.4-.5 1.6-.6-.1-.5 1.5-.2 1.7-.6-.1-.5 1.5-.2 1.7-.6.2-.7 1.7.4 2.2l-.2 2.2c-1-.1-2.1-.1-3.2-.1v-2.4c1.3-.4 1.4-2 .7-2.2.4-.2.6-1.8 0-1.8.3 0 .6-1.6-.1-1.6.4-.2.7-2.2-.3-1.7-.1.1-.2.1-.3.1 0 0 .4-.4.3-.8-.2-.6-.4-.7-.8-1.2-.3.6-.5.7-.7 1.2-.1.3.2.8.2.8-.1-.1-.2-.1-.3-.2-1-.5-.7 1.5-.3 1.7-.6 0-.4 1.6 0 1.8-.6 0-.4 1.5-.1 1.7-.6.2-.4 1.8.8 2.2h-.1v2.4c-1.1 0-2.1 0-3 .1l-.3-2.1h-.1c1.4-.4 1.3-2 .6-2.1.3-.3.3-1.8-.3-1.7.3-.2.3-1.8-.2-1.7.3-.3.4-2.2-.5-1.6-.1.1-.2.1-.2.2 0 0 .3-.5.1-.8-.3-.5-.4-.6-.9-1.1-.2.6-.4.7-.5 1.3-.1.4.3.7.3.7v.1c-.1 0-.2-.1-.3-.1-.9-.4-.5 1.6-.1 1.7-.6.1-.2 1.6.2 1.8-.6.1-.2 1.5.1 1.7-.5.3-.1 1.9 1 2.1h-.1l.3 2.1h-.1c-.9.1-1.7.2-2.4.3l.1-1.1h-.1c1.1-.7.7-2.3 0-2.3.2-.3 0-1.8-.5-1.6.2-.3 0-1.9-.5-1.7.3-.3-.1-2.3-.7-1.5-.1.1-.2.2-.2.3v-.1s.2-.5 0-.8c-.3-.5-.5-.5-1-.9-.1.6-.3.8-.3 1.4 0 .4.4.7.4.7h-.2c-1-.3-.2 1.5.2 1.6-.5.2.2 1.6.6 1.7-.2.1-.2.4-.1.7-.4-.2-2.6-.4-2.6 1s1.5 3.2 1.5 3.2c-.1.1-.1.2-.1.3.3 5.8 2 8.8 2.7 9.7.9 1.3 2 2.5 7.6 2.5 4.9 0 6.2-.8 7.3-1.6 1.2-.9 2.5-4.7 3-10.6 0 0-.3-.3-.3-.3zm-2.3-1.4c1.1 0 1.7-1.4 1.3-1.8 0 0 .1 0 .1-.1.7-.2 1.2 0 1.4.2.4.5-1.3 2.9-1.3 2.9-.4-.2-.9-.4-1.7-.5zm-18.3-1.8c.6-.2.7-.3 1.9.1-.1.5.5 1.8 1.6 1.6h-.1l.2.5c-1.1.3-1.8.5-2.2.7 0 0-1.9-2.6-1.4-2.9m72.5 3.2c.1-.1 1.5-1.8 1.5-3.2 0-1-1.1-1.1-1.9-1.1.1-.3 0-.5-.2-.6.4-.1 1-1.5.5-1.7.4-.1 1.2-1.8.2-1.7-.1 0-.2 0-.3.1 0 0 .4-.3.4-.7 0-.6-.2-.7-.2-1.4-.5.4-.7.5-1 .9-.2.3 0 .8 0 .8l-.2-.2c-.7-.8-1 1.2-.7 1.5-.4-.2-.7 1.4-.4 1.7-.5-.2-.8 1.3-.6 1.6-.6 0-1 1.5 0 2.3l-.3.8c-.7-.1-1.6-.2-2.5-.3l.3-2.1c1.1-.2 1.5-1.8 1-2.1.3-.2.7-1.7.2-1.7.3-.1.8-1.7.2-1.8.4-.2.9-2.1-.1-1.7-.1 0-.2.1-.3.1 0 0 .4-.4.3-.7-.1-.6-.3-.7-.5-1.3-.4.5-.6.6-.9 1.1-.1.3.2.7.2.7v.1c-.1-.1-.2-.1-.3-.2-.7-.6-.7 1.4-.4 1.6-.6-.1-.5 1.5-.2 1.7-.6-.1-.5 1.5-.2 1.7-.6.2-.7 1.7.4 2.2l-.3 2.4c-1-.1-2.1-.1-3.2-.1v-2.4c1.3-.4 1.4-2 .7-2.2.4-.2.6-1.8 0-1.8.5-.2.7-1.8.1-1.8.4-.2.7-2.2-.3-1.7-.1.1-.2.1-.3.1 0 0 .4-.4.3-.8-.2-.6-.4-.7-.8-1.2-.3.6-.5.7-.7 1.3-.2.3.2.8.2.8-.1-.1-.2-.1-.3-.2-1-.5-.7 1.5-.3 1.7-.6 0-.4 1.6 0 1.8-.6 0-.4 1.5-.1 1.7-.6.2-.4 1.8.8 2.2v2.4c-1.1 0-2.1 0-3 .1l-.3-2.1h-.1c1.2-.5 1.1-2.1.5-2.3.3-.3.3-1.8-.3-1.7.3-.2.3-1.8-.2-1.7.3-.3.4-2.2-.5-1.6-.1.1-.2.1-.2.2 0 0 .3-.5.1-.8-.3-.5-.5-.6-.9-1.1-.2.6-.4.7-.5 1.3-.1.4.3.7.3.7v.1c-.1 0-.2-.1-.3-.1-.9-.4-.5 1.6-.1 1.7-.6.1-.2 1.6.2 1.8-.6.1-.2 1.5.1 1.7-.5.3-.1 1.9 1 2.1h-.1l.3 2.1h-.1c-.9.1-1.7.2-2.4.3l-.2-.7h-.1c1-.7.7-2.3.1-2.3.2-.3 0-1.8-.5-1.6.2-.3 0-1.9-.5-1.7.3-.3-.1-2.3-.7-1.5-.1.1-.2.2-.2.3v-.1s.2-.5 0-.8c-.3-.5-.5-.5-1-.9-.1.7-.2.8-.2 1.4 0 .4.4.7.4.7h-.2c-1-.1-.2 1.6.2 1.7-.5.2.1 1.6.5 1.7-.2.1-.2.4-.1.7-.4-.2-2.6-.4-2.6 1s1.5 3.2 1.5 3.2h-.1c.1-.3.1-.2.1-.2.3 5.8 2 8.8 2.7 9.7.9 1.3 2 2.5 7.6 2.5 4.9 0 6.2-.8 7.3-1.6 1.2-.9 2.5-4.7 3-10.6-.1 0-.1-.1-.3-.2zm-2.3-1.4c1.1 0 1.7-1.4 1.3-1.8 0 0 .1 0 .1-.1.7-.2 1.2 0 1.3.2.4.5-1.3 2.9-1.3 2.9-.4-.2-.9-.4-1.7-.5 0 0 .3-.7.3-.7zm-18.2-1.8c.5-.2.7-.3 1.9.1-.2.5.5 1.8 1.5 1.6h-.1l.2.5c-.9.2-1.7.4-2.1.6-.1.1-2-2.5-1.4-2.8" fill="#ffd420"/><g fill="#231f20"><path d="m-250.2 273.7c-.1 0-.2-.1-.2-.2v-13.3c0-.1.1-.2.2-.2s.2.1.2.2v13.3c0 .1-.1.2-.2.2zm-10.5 1.1c-.2-.1-.2-.2-.2-.3l.7-1.2c.1-.2.2-.2.3-.1s.1.2.1.3l-.7 1.2s-.1.1-.2.1zm-1-.7h-1.1c-.6 0-1-.5-1-1.1v-.8c0-.6.5-1.1 1-1.1h1.1c.1 0 .2.1.2.2s-.1.2-.2.2h-1.1c-.3 0-.5.3-.5.6v.8c0 .3.2.6.5.6h1.1c.1 0 .2.1.2.2s-.1.4-.2.4zm0-8.8h-1.1c-.6 0-1-.5-1-1.1v-.8c0-.6.5-1.1 1-1.1h1.1c.1 0 .2.1.2.2s-.1.2-.2.2h-1.1c-.3 0-.5.3-.5.6v.8c0 .3.2.6.5.6h1.1c.1 0 .2.1.2.2s-.1.4-.2.4z"/><path d="m-259.1 275c-.5 0-1.1 0-1.6-.2-.1 0-.2-.1-.2-.2v-13.4c0-.1.1-.2.2-.2s.2.1.2.2v13.2c.9.2 1.7.1 2.4.1h.4c.2 0 .5-.1.9-.2 1-.3 2.6-.7 4.2-.5.5.1 1.1.3 1.6.6.1.1.2.2.1.3s-.2.2-.3.1c-.5-.3-1-.4-1.5-.5-1.5-.3-3 .2-4 .4-.4.1-.8.2-1 .2h-.4c-.2 0-.6.1-1 .1zm19.4-.2c-.1 0-.2 0-.2-.1l-.7-1.1c-.1-.1 0-.3.1-.3.1-.1.3 0 .3.1l.7 1.1c.1.1 0 .3-.2.3.1-.1 0 0 0 0zm2.1-.7h-1.1c-.1 0-.2-.1-.2-.2s.1-.2.2-.2h1.1c.3 0 .5-.3.5-.6v-.8c0-.3-.2-.6-.5-.6h-1.1c-.1 0-.2-.1-.2-.2s.1-.2.2-.2h1.1c.6 0 1 .5 1 1.1v.8c0 .4-.4.9-1 .9zm0-8.8h-1.1c-.1 0-.2-.1-.2-.2s.1-.2.2-.2h1.1c.3 0 .5-.3.5-.6v-.8c0-.3-.2-.6-.5-.6h-1.1c-.1 0-.2-.1-.2-.2s.1-.2.2-.2h1.1c.6 0 1 .5 1 1.1v.8c0 .4-.4.9-1 .9zm-3.7 9.7c-.4 0-.8 0-1.1-.1h-.4c-.2 0-.6-.1-1-.2-1-.3-2.5-.7-4-.4-.5.1-.9.2-1.4.5-.1.1-.3 0-.3-.1-.1-.1 0-.3.1-.3.6-.3 1.1-.5 1.6-.6 1.6-.3 3.2.2 4.2.5.4.1.7.2.9.2h.4c.7.1 1.6.1 2.4-.1v-13.2c0-.1.1-.2.2-.2s.2.1.2.2v13.4c0 .1-.1.2-.2.2-.5.1-1 .2-1.6.2z"/><path d="m-250.2 275.6c-.7-.1-1.1-.4-1.1-1 0-.8.6-1.3 1-1.3h.1c.4 0 1.1.5 1.1 1.3 0 .6-.4.9-1.1 1zm0-1.8c-.2 0-.6.2-.6.8 0 .3.2.5.6.5s.6-.2.6-.5c0-.6-.4-.8-.6-.8z"/><path d="m-258.6 273.7c-.4 0-.7 0-1-.1-.2 0-.3 0-.5-.1-.1 0-.2-.1-.2-.2v-12.9c0-.1.1-.2.2-.2s.2.1.2.2v12.8h.3c.4.1.8.1 1.5 0 .4 0 .8-.2 1.4-.4 1.2-.4 2.9-1 4.8-.6.7.2 1.3.5 1.6.8.3-.4.9-.6 1.6-.8 1.8-.4 3.5.1 4.8.6.5.2 1 .3 1.4.4.7.1 1.1 0 1.5 0h.3v-12.7c0-.1.1-.2.2-.2s.2.1.2.2v12.9c0 .1-.1.2-.2.2-.2 0-.3 0-.5.1-.4.1-.9.1-1.6 0-.4 0-.9-.2-1.5-.4-1.3-.4-2.8-1-4.5-.6-.7.2-1.3.5-1.5.9 0 .1-.1.1-.2.1s-.2 0-.2-.1c-.2-.4-.8-.7-1.5-.9-1.7-.4-3.2.1-4.5.5-.6.2-1.1.4-1.5.4-.1.1-.4.1-.6.1z"/><path d="m-250.2 276.1c-.5 0-.8-.2-1.1-.6h-10.4c-.1 0-.1 0-.2-.1 0 0-.1-.1-.1-.2v-14.2c0-.1.1-.2.2-.2h.7v-.6c0-.1 0-.2.1-.2h.2l.6.2c0-.1 0-.1.1-.2.1 0 .1-.1.2 0 .2.1.4.1.5.2.2 0 .3.1 1.1 0 .2 0 .6-.1 1-.3 1.1-.4 2.6-.9 4.2-.9.6 0 1.1.1 1.5.2s.7.3 1 .4c.1.1.3.1.5.2.2-.1.3-.2.4-.2.3-.1.6-.3 1-.4.5-.1 1-.2 1.5-.2 1.5 0 3.1.5 4.2.9.5.2.9.3 1 .3.9.1 1.1-.1 1.4-.2.1 0 .1-.1.2-.1h.2c.1 0 .1.1.1.2l.3-.2h.2c.1 0 .1.1.1.2v.7h.7c.1 0 .2.1.2.2v14.2c0 .1 0 .1-.1.2 0 0-.1.1-.2.1h-10.2l-.1.1c-.3.3-.5.5-1 .5zm-11.2-1h10.2c.1 0 .1 0 .2.1.4.4.5.5.9.5.3 0 .4-.1.7-.4l.1-.1s.1-.1.2-.1h10.3v-13.7h-.7c-.1 0-.2-.1-.2-.2v-.5l-.3.2h-.2s-.1-.1-.1-.2c-.3.1-.6.2-1.5.2-.2 0-.6-.1-1.2-.3-1-.3-2.6-.9-4-.9-.5 0-1 .1-1.4.2s-.6.2-.9.4c-.2.1-.3.2-.6.3h-.2l-.6-.3c-.3-.1-.5-.3-.9-.4s-.9-.2-1.4-.2c-1.5 0-3 .5-4 .9-.5.2-.9.3-1.2.3-.9 0-1.1-.1-1.3-.2h-.1v.1c0 .1 0 .2-.1.2h-.2l-.4-.2v.5c0 .1-.1.2-.2.2h-.9zm38.9-1.4c-.1 0-.2-.1-.2-.2v-13.3c0-.1.1-.2.2-.2s.2.1.2.2v13.3c0 .1-.1.2-.2.2zm-10.5 1.1h-.1c-.1-.1-.1-.2-.1-.3l.7-1.2c.1-.1.2-.1.3-.1.1.1.1.2.1.3l-.7 1.2s-.1.1-.2.1zm-1-.7h-1.1c-.6 0-1-.5-1-1.1v-.8c0-.6.5-1.1 1-1.1h1.1c.1 0 .2.1.2.2s-.1.2-.2.2h-1.1c-.3 0-.5.3-.5.6v.8c0 .3.2.6.5.6h1.1c.1 0 .2.1.2.2s0 .4-.2.4zm0-8.8h-1.1c-.6 0-1-.5-1-1.1v-.8c0-.6.5-1.1 1-1.1h1.1c.1 0 .2.1.2.2s-.1.2-.2.2h-1.1c-.3 0-.5.3-.5.6v.8c0 .3.2.6.5.6h1.1c.1 0 .2.1.2.2s0 .4-.2.4z"/><path d="m-231.4 275c-.5 0-1.1 0-1.6-.2-.1 0-.2-.1-.2-.2v-13.4c0-.1.1-.2.2-.2s.2.1.2.2v13.2c.9.2 1.7.1 2.4.1h.4c.2 0 .5-.1.9-.2 1-.3 2.6-.7 4.2-.5.5.1 1.1.3 1.6.6.1.1.2.2.1.3s-.2.2-.3.1c-.5-.3-1-.5-1.5-.5-1.5-.3-3 .2-4 .4-.4.1-.8.2-1 .2h-.4c-.2 0-.6.1-1 .1zm19.4-.2c-.1 0-.2 0-.2-.1l-.6-1.1c-.1-.1 0-.3.1-.3.1-.1.3 0 .3.1l.6 1.1c.1.1 0 .3-.2.3.1-.1 0 0 0 0zm2.1-.7h-1.1c-.1 0-.2-.1-.2-.2s.1-.2.2-.2h1.1c.3 0 .5-.3.5-.6v-.8c0-.3-.2-.6-.5-.6h-1.1c-.1 0-.2-.1-.2-.2s.1-.3.2-.3h1.1c.6 0 1 .5 1 1.1v.8c0 .5-.4 1-1 1zm0-8.8h-1.1c-.1 0-.2-.1-.2-.2s.1-.2.2-.2h1.1c.3 0 .5-.3.5-.6v-.8c0-.3-.2-.6-.5-.6h-1.1c-.1 0-.2-.1-.2-.2s.1-.2.2-.2h1.1c.6 0 1 .5 1 1.1v.8c0 .4-.4.9-1 .9zm-3.7 9.7c-.4 0-.8 0-1.1-.1h-.4c-.2 0-.6-.1-1-.2-1-.3-2.5-.7-4-.4-.5.1-.9.2-1.4.5-.1.1-.3 0-.3-.1-.1-.1 0-.3.1-.3.6-.3 1-.5 1.6-.6 1.6-.3 3.2.2 4.2.5.4.1.7.2.9.2h.4c.7.1 1.6.1 2.4-.1v-13.2c0-.1.1-.2.2-.2s.2.1.2.2v13.4c0 .1-.1.2-.2.2-.5.1-1 .2-1.6.2z"/><path d="m-222.5 275.6c-.7-.1-1.1-.4-1.1-1 0-.8.6-1.3 1.1-1.3h.1c.4 0 1 .5 1 1.3 0 .6-.4.9-1.1 1zm0-1.8c-.1 0-.2.1-.3.2s-.2.3-.2.6c0 .1 0 .5.6.5.4 0 .6-.2.6-.5-.1-.6-.5-.8-.7-.8z"/><path d="m-230.9 273.7c-.4 0-.7 0-1-.1-.2 0-.3 0-.5-.1-.1 0-.2-.1-.2-.2v-12.9c0-.1.1-.2.2-.2s.2.1.2.2v12.8h.3c.4.1.8.1 1.5 0 .4 0 .8-.2 1.4-.4 1.2-.4 2.9-1 4.8-.6.7.2 1.3.5 1.6.8.3-.4.9-.6 1.6-.8 1.8-.4 3.5.1 4.8.6.5.2 1 .3 1.4.4.7.1 1.1 0 1.5 0h.3v-12.7c0-.1.1-.2.2-.2s.2.1.2.2v12.9c0 .1-.1.2-.2.2-.2 0-.3 0-.5.1-.4.1-.9.1-1.6 0-.4 0-.9-.2-1.5-.4-1.3-.4-2.8-1-4.5-.6-.7.2-1.3.5-1.5.9 0 .1-.1.1-.2.1s-.2 0-.2-.1c-.2-.4-.8-.7-1.5-.9-1.7-.4-3.3.1-4.5.6-.6.2-1.1.4-1.5.4z"/><path d="m-222.5 276.1c-.5 0-.8-.2-1.1-.6h-10.4c-.1 0-.2-.1-.2-.2v-14.2c0-.1.1-.2.2-.2h.7v-.7c0-.1 0-.2.1-.2h.2l.3.2c0-.1 0-.1.1-.2.1 0 .1-.1.2 0 .2.1.4.1.5.2.2.1.4.2 1.1.1.2 0 .6-.1 1-.3 1.1-.4 2.6-.9 4.2-.9.6 0 1.1.1 1.5.2s.7.3 1 .4c.1.1.3.1.5.2.2-.1.3-.2.5-.2.3-.1.6-.3 1-.4.5-.1 1-.2 1.5-.2 1.5 0 3.1.5 4.2.9.5.2.9.3 1 .3.9.1 1.1-.1 1.4-.2.1 0 .1-.1.2-.1h.2c.1 0 .1.1.1.2l.3-.2h.2c.1 0 .1.1.1.2v.7h.9c.1 0 .2.1.2.2v14.2c0 .1-.1.2-.2.2h-10.4l-.1.1c-.3.3-.5.5-1 .5zm-11.2-1h10.2c.1 0 .1 0 .2.1.3.3.5.5.8.5s.4-.1.7-.4l.1-.1s.1-.1.2-.1h10.3v-13.7h-.8c-.1 0-.2-.1-.2-.2v-.5l-.3.2h-.2c-.1 0-.1-.1-.1-.2-.3.1-.6.2-1.5.2-.2 0-.6-.1-1.2-.3-1-.3-2.6-.9-4-.9-.5 0-1 .1-1.4.2s-.6.2-.9.4c-.2.1-.3.2-.6.3h-.2l-.6-.3c-.3-.1-.5-.3-.9-.4s-.9-.2-1.4-.2c-1.5 0-3 .5-4 .9-.5.2-.9.3-1.2.3-.9 0-1.1-.1-1.3-.2h-.1v.1c0 .1 0 .2-.1.2h-.2l-.3-.2v.5c0 .1-.1.2-.2.2h-.7zm38.9-1.4c-.1 0-.2-.1-.2-.2v-13.3c0-.1.1-.2.2-.2s.2.1.2.2v13.3c0 .1-.1.2-.2.2zm-10.5 1.1c-.2-.1-.2-.2-.2-.3l.7-1.2c.1-.1.2-.1.3-.1.1.1.1.2.1.3l-.7 1.2s-.1.1-.2.1zm-1-.7h-1.1c-.6 0-1-.5-1-1.1v-.8c0-.6.5-1.1 1-1.1h1.1c.1 0 .2.1.2.2s-.1.2-.2.2h-1.1c-.3 0-.5.3-.5.6v.8c0 .3.2.6.5.6h1.1c.1 0 .2.1.2.2s0 .4-.2.4zm0-8.8h-1.1c-.6 0-1-.5-1-1.1v-.8c0-.6.5-1.1 1-1.1h1.1c.1 0 .2.1.2.2s-.1.2-.2.2h-1.1c-.3 0-.5.3-.5.6v.8c0 .3.2.6.5.6h1.1c.1 0 .2.1.2.2s0 .4-.2.4z"/><path d="m-203.7 275c-.5 0-1.1 0-1.6-.2-.1 0-.2-.1-.2-.2v-13.4c0-.1.1-.2.2-.2s.2.1.2.2v13.2c.9.2 1.8.1 2.4.1h.4c.2 0 .5-.1.9-.2 1-.3 2.6-.7 4.2-.5.5.1 1.1.3 1.6.6.1.1.2.2.1.3s-.2.2-.3.1c-.5-.3-1-.5-1.5-.5-1.5-.3-3 .2-4 .4-.4.1-.8.2-1 .2h-.4c-.2 0-.6.1-1 .1zm19.4-.2c-.1 0-.2 0-.2-.1l-.7-1.1c-.1-.1 0-.3.1-.3.1-.1.3 0 .3.1l.7 1.1c.1.1 0 .3-.1.3 0-.1-.1 0-.1 0zm2.1-.7h-1.1c-.1 0-.2-.1-.2-.2s.1-.2.2-.2h1.1c.3 0 .5-.3.5-.6v-.8c0-.3-.2-.6-.5-.6h-1.1c-.1 0-.2-.1-.2-.2s.1-.2.2-.2h1.1c.6 0 1 .5 1 1.1v.8c0 .4-.4.9-1 .9zm0-8.8h-1.1c-.1 0-.2-.1-.2-.2s.1-.2.2-.2h1.1c.3 0 .5-.3.5-.6v-.8c0-.3-.2-.6-.5-.6h-1.1c-.1 0-.2-.1-.2-.2s.1-.2.2-.2h1.1c.6 0 1 .5 1 1.1v.8c0 .4-.4.9-1 .9zm-3.7 9.7c-.4 0-.8 0-1.1-.1h-.4c-.2 0-.6-.1-1-.2-1-.3-2.5-.7-4-.4-.5.1-.9.2-1.4.5-.1.1-.3 0-.3-.1-.1-.1 0-.3.1-.3.6-.3 1-.5 1.6-.6 1.6-.3 3.2.2 4.2.5.4.1.7.2.9.2h.4c.7 0 1.6.1 2.4-.1v-13.2c0-.1.1-.2.2-.2s.2.1.2.2v13.4c0 .1-.1.2-.2.2-.5.1-1 .2-1.6.2z"/><path d="m-194.8 275.6c-.7-.1-1.1-.4-1.1-1 0-.8.6-1.3 1.1-1.3h.1c.4 0 1.1.5 1.1 1.3-.1.6-.5.9-1.2 1zm0-1.8c-.1 0-.2.1-.3.2s-.2.3-.2.6.2.5.6.5c.6-.1.6-.4.6-.5-.1-.6-.5-.8-.7-.8z"/><path d="m-203.2 273.7c-.4 0-.7 0-1-.1-.2 0-.3 0-.5-.1-.1 0-.2-.1-.2-.2v-12.9c0-.1.1-.2.2-.2s.2.1.2.2v12.8h.3c.4.1.8.1 1.5 0 .4 0 .8-.2 1.4-.4 1.2-.4 2.9-1 4.8-.6.7.2 1.3.5 1.6.8.3-.4.9-.6 1.6-.8 1.8-.4 3.5.1 4.8.6.5.2 1 .3 1.4.4.7.1 1.1 0 1.5 0h.3v-12.7c0-.1.1-.2.2-.2s.2.1.2.2v12.9c0 .1-.1.2-.2.2-.2 0-.3 0-.5.1-.4.1-.9.1-1.6 0-.4 0-.9-.2-1.5-.4-1.2-.4-2.8-1-4.5-.6-.7.2-1.3.5-1.5.9 0 .1-.1.1-.2.1s-.2 0-.2-.1c-.2-.4-.8-.7-1.5-.9-1.7-.4-3.2.1-4.5.6-.6.2-1.1.4-1.5.4z"/><path d="m-194.8 276.1c-.5 0-.8-.2-1.1-.6h-10.4c-.1 0-.2-.1-.2-.2v-14.2c0-.1.1-.2.2-.2h.7v-.7c0-.1 0-.2.1-.2h.2l.3.2c0-.1 0-.1.1-.2.1 0 .1-.1.2 0 .2.1.4.1.5.2.2.1.4.2 1.1.1.2 0 .6-.1 1-.3 1.1-.4 2.6-.9 4.2-.9.6 0 1.1.1 1.5.2s.7.3 1 .4c.1.1.3.1.4.2.2-.1.3-.2.5-.2.3-.1.6-.3 1-.4.5-.1 1-.2 1.5-.2 1.5 0 3.1.5 4.2.9.5.2.9.3 1 .3.9.1 1.1-.1 1.4-.2.1 0 .1-.1.2-.1h.2c.1 0 .1.1.1.2l.4-.2h.2c.1 0 .1.1.1.2v.7h.7c.1 0 .2.1.2.2v14.2c0 .1-.1.2-.2.2h-10.2l-.1.1c-.3.3-.5.5-1 .5zm-11.2-1h10.2c.1 0 .1 0 .2.1.4.4.5.5.9.5.3 0 .4-.1.7-.4l.1-.1s.1-.1.2-.1h10.3v-13.7h-.7c-.1 0-.2-.1-.2-.2v-.5l-.4.2h-.2c-.1 0-.1-.1-.1-.2-.3.1-.6.2-1.4.2-.2 0-.6-.1-1.2-.3-1-.3-2.6-.9-4-.9-.5 0-1 .1-1.4.2s-.6.2-.9.4l-.6.3h-.2l-.6-.3c-.3-.1-.5-.3-.9-.4s-.9-.2-1.4-.2c-1.5 0-3 .5-4 .9-.5.2-.9.3-1.2.3-.9 0-1.1-.1-1.3-.2h-.1v.1c0 .1 0 .2-.1.2s-.2.1-.2 0l-.3-.2v.5c0 .1-.1.2-.2.2h-1z"/><path d="m-247.9 270.5h5c.2-.6.3-1.3.3-2h-.1c-.2 1.3-.8 1.8-1.9 1.8-1.5 0-1.4-.8-1.4-1.4v-1.7h.9c.7 0 1.2 0 1.3.9h.1v-2.3h-.1c-.1.9-.6.9-1.3.9h-.9v-2.9h.9c.9 0 1.8 0 1.8 1.3h.1l.1-1.6h-4.8v.2c1.1.2 1.1.5 1.1 1.5v3.6c0 1.1 0 1.4-1.1 1.5zm-6.4-6.9v.2c1.4.2 1.2.6.5 2.7l-1.1 2.9-1.4-3.9c-.2-.6-.7-1.5.6-1.6v-.2h-2.8v.2c.8.1 1 .8 1.3 1.5l2 5.5h.1l1.7-4.7c.6-1.5.8-2.3 1.7-2.4v-.2zm56.7-.3c-.2.2-.3.2-.6.2h-4.1c-.3 0-.3 0-.6-.2h-.1l-.2 1.9h.1c.3-1.3.8-1.3 1.8-1.3h.5v4.7c0 1.3-.1 1.6-1.3 1.8v.2h3.3v-.2c-1.2-.2-1.3-.5-1.3-1.8v-4.7h.5c1 0 1.5.1 1.8 1.3h.1l-.1-1.9zm3.8 4.3c.2.7.6 1.7.6 2.1 0 .5-.4.6-.7.7v.2h2.6v-.2c-.7-.2-.8-.5-1.1-1.2l-2-6c-.2.3-.4.4-.7.5.1.2 0 .4-.1.7l-.5 1.7-1 3c-.3.8-.4 1-1.2 1.3v.2h2.5v-.2c-.4-.1-1-.1-1-.7 0-.5.4-1.6.6-2.1zm-.1-.5h-1.8l.8-2.7zm6.8-3.3c-.4-.2-.9-.4-1.3-.4-1 0-2 .8-2 2 0 2.1 2.8 1.9 2.8 3.7 0 .8-.5 1.3-1.2 1.3-1 0-1.6-1-1.8-2h-.2l.3 1.7c.5.3 1 .5 1.6.5 1 0 2.2-.7 2.2-2 0-2.1-2.8-2-2.8-3.8 0-.7.5-1.1 1.1-1.1.9 0 1.1.8 1.3 1.6h.1s-.1-1.5-.1-1.5zm-30 1.4c0-1.1 0-1.4 1.1-1.5v-.2h-3v.2c1.1.2 1.1.5 1.1 1.5v3.6c0 1.1 0 1.4-1.1 1.5v.2h3v-.2c-1.1-.2-1.1-.5-1.1-1.5zm-11.3-1.4c.9 0 1.9.5 1.9 1.7 0 1.1-1 1.6-1.9 1.6zm-.8 5.1c0 1.1 0 1.4-1.1 1.5v.2h3.2v-.2c-1.2-.2-1.3-.4-1.3-1.5v-1.7c.6.1 1-.1 1.3.7.2.4.7 1.3 1.3 2 .5.6 1.2.6 2.2.6v-.1c-1.5-.4-2.4-2.1-3-3.5v-.1c.6-.3 1.1-.8 1.1-1.7 0-.5-.2-1.7-2.5-1.7l-2.2.1v.1c1 .1 1.1.3 1.1 1.9-.1.2-.1 3.4-.1 3.4zm-20.6 70.1c-.1 0-.2 0-.3-.1s-.1-.4 0-.5l27.1-24.8c.1-.1.3-.1.5 0l27.2 24.8c.1.1.2.4 0 .5-.1.1-.4.2-.5 0l-26.9-24.6-26.9 24.6c0 .1-.1.1-.2.1z"/><path d="m-188.6 329c-.1 0-.2 0-.2-.1l-33.9-30.1-33.8 30.2c-.1.1-.4.1-.5 0s-.1-.4 0-.5l34.1-30.4c.1-.1.3-.1.5 0l34.1 30.4c.1.1.2.4 0 .5zm1.7-43.5c-3.3 0-6.1-1.4-7.2-3.4-1.1 2-3.9 3.4-7.1 3.4-3.3 0-6.1-1.4-7.2-3.4-1.1 2-3.9 3.4-7.1 3.4-3.3 0-6.1-1.4-7.2-3.4-1.1 2-3.9 3.4-7.1 3.4-3.3 0-6.1-1.4-7.2-3.4-1.1 2-3.9 3.4-7.1 3.4-3.3 0-6.1-1.4-7.1-3.3-1.1 2-3.9 3.3-7.1 3.3-3.8 0-6.9-1.8-7.5-4.3 0-.2.1-.4.3-.4.2-.1.4.1.4.3.4 2.1 3.4 3.7 6.8 3.7s6.3-1.6 6.8-3.7c0-.2.2-.3.3-.3.2 0 .3.1.3.3.5 2.1 3.3 3.7 6.8 3.7 3.3 0 6.3-1.6 6.8-3.8 0-.2.2-.3.3-.3.2 0 .3.1.3.3.5 2.1 3.4 3.8 6.8 3.8 3.3 0 6.3-1.6 6.8-3.8 0-.2.2-.3.3-.3.2 0 .3.1.3.3.5 2.1 3.4 3.8 6.8 3.8 3.3 0 6.3-1.6 6.8-3.8 0-.2.2-.3.3-.3.2 0 .3.1.3.3.5 2.1 3.4 3.8 6.8 3.8 3.3 0 6.3-1.6 6.8-3.8 0-.2.2-.3.3-.3.2 0 .3.1.3.3.5 2.1 3.4 3.8 6.8 3.8s6.3-1.6 6.8-3.7c0-.2.2-.3.4-.3s.3.2.3.4c-.2 2.5-3.4 4.3-7.1 4.3zm0-2.4c-3.2 0-6.1-1.9-7.2-4.6-1.1 2.7-3.9 4.6-7.1 4.6s-6.1-1.9-7.2-4.6c-1.1 2.7-3.9 4.6-7.1 4.6s-6.1-1.9-7.2-4.6c-1.1 2.7-3.9 4.6-7.1 4.6s-6.1-1.9-7.2-4.6c-1 2.7-3.9 4.6-7.1 4.6-3.3 0-6.1-1.8-7.1-4.5-1.1 2.7-3.9 4.5-7.1 4.5-3.7 0-7-2.5-7.5-5.9 0-.2.1-.4.3-.4s.4.1.4.3c.5 3 3.4 5.3 6.8 5.3s6.3-2.2 6.8-5.2c0-.2.2-.3.4-.3s.3.1.4.3c.5 3 3.4 5.2 6.8 5.2 3.3 0 6.2-2.3 6.8-5.3 0-.2.2-.3.4-.3s.3.1.4.3c.5 3 3.4 5.3 6.8 5.3 3.3 0 6.2-2.3 6.8-5.3 0-.2.1-.3.4-.3.2 0 .3.1.4.3.5 3 3.4 5.3 6.8 5.3 3.3 0 6.2-2.3 6.8-5.3 0-.2.2-.3.4-.3s.3.1.4.3c.5 3 3.4 5.3 6.8 5.3 3.3 0 6.2-2.3 6.8-5.3 0-.2.2-.3.4-.3s.3.1.3.3c.5 3 3.4 5.3 6.8 5.3s6.3-2.2 6.8-5.2c0-.2.2-.3.4-.3s.3.2.3.4c-1.1 3.4-4.3 5.8-8 5.8zm-35.3 65.9s-3.8 0-3.8-1.4c0-.1.1-.2.2-.2s.2.1.2.2c0 .5 1.8.9 3.3.9 2.2 0 2.9-.3 3.1-.6.1-.1.1-.1.1-.2s.1-.2.2-.2.2.1.2.2c0 .2-.1.4-.2.6-.3.5-1.5.7-3.3.7z"/><path d="m-222.2 348.3c-.8 0-3.2-.2-3.2-1 0-.3.3-.5.4-.5.1-.1.3 0 .3.1.1.1 0 .3-.1.3-.1.1-.2.1-.2.1.1.2 1.4.5 2.7.5 1.9 0 2.6-.3 2.6-.5l.2-.1h-.2v.1c-.1-.1-.1-.3 0-.3.1-.1.2-.1.3 0s.1.3.1.3c.1.6-.9 1-2.9 1zm0-7.6c-4.9 0-8.7-.9-8.7-2.1 0-.1.1-.2.2-.2s.2.1.2.2c0 .6 2.8 1.7 8.3 1.7 5.9 0 8.3-.9 8.3-1.4 0-.1.1-.2.2-.2s.2.1.2.2c.1 1.3-4.6 1.8-8.7 1.8zm-4.3 5.4c-.1 0-.1 0 0 0-.1 0-5.7-.4-9-5.7-1.5-2.4-2.1-2.6-2.1-2.6-.2-.1-1.4-.9-1.4-1.7 0-.1.1-.2.2-.2s.2.1.2.2c0 .5.8 1.1 1.1 1.3.2.1.9.5 2.4 2.8 3.2 5.1 8.5 5.5 8.6 5.5s.2.1.2.3c0 0-.1.1-.2.1z"/><path d="m-222.4 342.4c-3.5 0-6.9-.5-8.5-1.3-.3 0-1.6.1-2.8-.8-.9-.7-1.4-1.9-1.6-3.4 0-.1.1-.2.2-.3.1 0 .2.1.3.2.1 1.4.6 2.4 1.4 3.1 1.1.9 2.5.7 2.5.7h.1c1.2.6 4.3 1.3 8.3 1.3 5.6 0 9.1-1.2 9.1-1.8 0-.1.1-.2.2-.2s.2.1.2.2c.2 1.3-4.8 2.3-9.4 2.3z"/><path d="m-228.9 339.9c-.2-.1-.3-.2-.2-.3.9-3.1 4.5-4 4.7-4 .1 0 .3 0 .3.2 0 .1 0 .3-.2.3 0 0-3.5.9-4.4 3.7 0 0-.1.1-.2.1zm4.2 6.6c-4.6-1.4-4.4-5-4.4-5 0-.1.1-.2.3-.2.1 0 .2.1.2.3 0 .1-.1 3.2 4 4.5.1 0 .2.2.2.3-.1 0-.2.1-.3.1zm-.3-6c-.1 0-.2-.1-.2-.2-.1-2.8 2-4 2.1-4.1s.3 0 .3.1c.1.1 0 .3-.1.3s-2 1.1-1.9 3.6c0 .2-.1.3-.2.3zm5.5 0c-.1 0-.2-.1-.2-.2 0-2.8-1.7-3.6-1.8-3.6-.1-.1-.2-.2-.1-.3s.2-.2.3-.1c.1 0 2.1 1 2.1 4.1-.1 0-.2.1-.3.1zm4.1-.5c-.1 0-.2-.1-.2-.2-1.2-3.3-4.5-3.8-4.5-3.8-.1 0-.2-.1-.2-.3 0-.1.1-.2.3-.2.1 0 3.6.6 4.9 4.1-.1.2-.1.4-.3.4zm-5.5 6.7c-.1 0-.2-.1-.2-.2s0-.3.1-.3c4.9-1.7 5.3-4.8 5.3-4.9s.1-.2.3-.2c.1 0 .2.1.2.3 0 .1-.4 3.4-5.7 5.3z"/><path d="m-222.3 346.7c-.1 0-.2-.1-.2-.2s.1-.3.2-.3c2.3-.3 2.4-4.1 2.4-4.1 0-.1.1-.2.2-.2s.2.1.2.2c0 .2-.1 4.2-2.8 4.6z"/><path d="m-222.2 346.7c-3.1-.3-3.4-4.5-3.4-4.6s.1-.2.2-.3c.1 0 .2.1.3.2 0 0 .3 4 3 4.2.1 0 .2.1.2.3-.1.1-.2.2-.3.2zm0 5.5c-3.1 0-6.4-.7-6.4-2.1 0-.5.5-1.2 1.5-1.4l1.1-1c0-.5.4-.7.7-.8.4-.1.6-.2.6-.6 0-.1.1-.2.2-.2s.2.1.2.2c0 .8-.5 1-.9 1.1s-.4.2-.4.4c0 .1 0 .1-.1.2l-1.2 1.1s-.1 0-.1.1c-.8.2-1.2.6-1.2.9 0 .8 2.5 1.6 5.9 1.6s5.9-.9 5.9-1.6c0-.3-.1-.4-1-.7h-.1l-1.5-1.4s-.1-.1-.1-.2c0-.2-.1-.3-.4-.4s-.8-.3-.8-1.1c0-.1.1-.2.2-.2s.2.1.2.2c0 .5.2.5.5.6s.6.2.7.7l1.4 1.3c.8.3 1.3.5 1.3 1.2.2 1.4-3.1 2.1-6.2 2.1zm0-1.1c-2.9 0-4.1-.7-4.6-1.2s-.5-.9-.5-1 .1-.2.2-.2.2.1.2.2c0 0 0 .3.3.7.5.5 1.6 1 4.2 1 4.6 0 4.8-1.5 4.8-1.5 0-.1.1-.2.3-.2.1 0 .2.1.2.2.1.3-.1 2-5.1 2zm0-15.8c-.9 0-1.5-.4-1.5-1 0-.1.1-.2.2-.2s.2.1.2.2c0 .3.4.5 1 .5s1-.2 1-.5c0-.1.1-.2.2-.2s.2.1.2.2c.2.6-.5 1-1.3 1zm0-3.8c-.8 0-1.4-.6-1.4-1.2 0-.1.1-.2.2-.2s.2.1.2.2c0 .3.4.8.9.8.6 0 .9-.3.9-.8 0-.1.1-.3.2-.2.1 0 .2.1.2.2.1.7-.4 1.2-1.2 1.2z"/><path d="m-222.2 330.7c-.5 0-.9-.3-.9-.8 0-.1.1-.2.2-.2s.2.1.2.2c0 .3.2.4.4.4s.3-.1.3-.4c0-.1.1-.2.2-.2s.2.1.2.2c.2.4-.1.8-.6.8zm4 15.4c-.1 0-.2-.1-.2-.2s.1-.2.2-.3c7.8-.9 11.5-3.1 11.6-7 0 0 .1-1.6-.9-2.6-.1-.1-.1-.2-.1-.3s.1-.1.2-.1c1.5 0 1.7-.3 2.5-1.3l.1-.1c-.1 0-.4.1-.8.3-1.3.5-4.4 0-4.5 0-.8-.1-1.5.2-2 .7-.7.6-1 1.6-1 2.6 0 .8.3 1.5.8 1.9.4.4 1 .6 1.6.6.8 0 1.6-.5 1.6-1.7 0-.8-.4-1.4-.9-1.4-.2 0-.3 0-.4.1.4.2.7.6.6 1.3-.1.5-.6.8-.9.8-.4 0-.7-.1-1-.3s-.4-.6-.4-1c-.1-.7.2-1.4.6-1.8s.9-.6 1.6-.6c1.5 0 2.6 1.1 2.6 2.8 0 2.4-1.3 3.8-3.4 3.8-.6 0-1.3-.2-2-.6l.1-.2-.2-.2c.1-.1.2-.1.3-.1.7.3 1.3.5 1.8.5 1.9 0 3-1.2 3-3.4 0-1.4-.8-2.3-2.1-2.3-.5 0-.9.2-1.2.5-.3.4-.5.9-.5 1.5 0 .3.1.5.3.7s.4.2.6.2.4-.2.5-.5c.1-.4-.1-.6-.5-.9-.1 0-.1-.1-.1-.2 0 0 0-.2.1-.4.2-.2.4-.3.8-.3.8 0 1.4.8 1.4 1.9 0 1.5-1.1 2.2-2.1 2.2-.7 0-1.4-.2-1.9-.8-.6-.6-.9-1.4-.9-2.3 0-1.2.4-2.3 1.2-3 .7-.6 1.5-.9 2.4-.9.1 0 3.1.5 4.3.1.9-.4 1.3-.4 1.5-.2.2.3-.1.6-.2.8-.7.8-1.1 1.3-2.4 1.4.8 1.1.8 2.5.8 2.5-.6 4.6-4.4 7-12.5 7.8z"/><path d="m-222.2 346.7c-.8 0-1.7-.1-2.3-.2-.7-.1-1.4-.2-2.1-.4-1.3-.4-2.4-1.1-3.5-2-.1-.1-1-.9-1-4.3v-.5c-.1-.1-.2-.2-.1-.3s.2-.2.3-.1c.3.1.3.7.3.9.1 3.2.9 4 .9 4 1 .9 2 1.5 3.3 1.9.6.2 1.3.3 2 .4.6.1 1.5.2 2.3.2s1.5-.1 2.2-.2c.6-.1 1-.2 1.7-.4 2.8-.8 4.7-2.4 5.1-4.2 0-.2.1-.4.1-.6 0-2.4-2.8-4.6-6.8-5.2-.1 0-.2-.1-.2-.2 0-.2-.3-.6-.9-.9-.1 0-.1-.1-.1-.2v-.7c0-.1.1-.2.2-.2s.2.1.2.2v.6c.5.3.9.7 1 1.1 4.2.7 7.1 3 7.1 5.6 0 .3 0 .5-.1.7-.4 2-2.4 3.6-5.4 4.5-.7.2-1.2.3-1.7.4-1 0-1.7.1-2.5.1zm0-9.9c-1.4 0-2.5-.6-2.5-1.3 0-.1.1-.2.2-.2s.2.1.2.2c0 .4.9.8 2 .8s2-.4 2-.8c0-.1.1-.2.2-.2s.2.1.2.2c.2.7-.9 1.3-2.3 1.3z"/><path d="m-231 339.3c-.1 0-1-.1-1.6-.8-.5-.6-.6-1.4-.5-2.5 0-.1.1-.2.3-.2.1 0 .2.1.2.3-.1.9 0 1.6.4 2.1s.9.6 1.1.6c1.1-1.8 3.5-3.1 6.5-3.5.1-.4.4-.8 1-1.1v-.6c0-.1.1-.2.3-.2.1 0 .2.1.2.3v.8c0 .1-.1.2-.1.2-.6.3-.8.7-.8.9 0 .1-.1.2-.2.2-3 .4-5.4 1.7-6.4 3.5-.3-.1-.4 0-.4 0zm8.8-5.3c-.4 0-.9-.1-1.3-.2-1.3-.4-1.6-1.1-1.6-1.7 0-.8.6-1.6 1.5-1.9.1-.1.2-.3.5-.4.1-.5.4-1.7.8-1.8h.2c.4.2.7 1.3.7 1.8.2.1.4.3.5.4 1 .4 1.6 1.1 1.6 2 0 .8-.6 1.5-1.6 1.8-.5-.1-.9 0-1.3 0zm0-5.6c-.2.3-.4 1.1-.4 1.4 0 .1-.1.2-.1.2-.3.2-.4.3-.4.4s-.1.1-.1.1c-.8.3-1.3.9-1.3 1.5s.4 1.1 1.2 1.3c.3.1.8.2 1.1.2.4 0 .8-.1 1.1-.2.8-.2 1.3-.7 1.3-1.3 0-.7-.5-1.3-1.3-1.6-.1 0-.1-.1-.1-.1-.1-.2-.2-.3-.4-.3-.1 0-.2-.1-.2-.2-.1-.4-.3-1.1-.4-1.4zm-13.9 6.4h-.5c-.1 0-.3 0-.5-.1-.7-.2-1.4-.5-1.5-1.5-.1-.9.5-1.8 1-2.6.2-.2.3-.4.4-.6.3-.5.4-.9.5-1.3 0-.2.1-.4.2-.6 0-.1.1-.1.1-.2.1 0 .2-.1.3-.1.5 0 .5.5.5 1 0 .4 0 .8.2 1.1.1.2.3.4.4.6.6.8 1.2 1.7 1 2.6-.2 1-.8 1.3-1.5 1.5-.2.1-.3.1-.4.1h-.3c.3.1.2.1.1.1.1 0 .1 0 0 0zm.2-6.4c0 .2-.1.3-.1.5-.1.5-.2.8-.6 1.4-.1.2-.3.4-.4.7-.5.7-1.1 1.5-1 2.2.1.8.5.9 1.2 1.1h1.6c.7-.2 1.1-.4 1.2-1.1s-.4-1.5-1-2.2c-.2-.2-.3-.4-.4-.7-.2-.4-.3-.9-.3-1.3-.1-.2-.1-.5-.2-.6z"/><path d="m-235.8 335.1v-1.3c0-.3-.5-.3-.5 0v1.3c-.8 0-1.4.3-1.4.5 0 .3.8.5 1.7.5 1 0 1.7-.2 1.7-.5.1-.3-.6-.5-1.5-.5"/><path d="m-235.9 336.4c-.7 0-2-.2-2-.8 0-.4.7-.7 1.4-.8v-1.1c0-.3.2-.5.5-.5s.5.2.5.5v1.1c.8.1 1.6.3 1.6.8 0 .6-1.3.8-2 .8zm-.1-1.3c0 .1-.1.2-.2.2-.8 0-1.1.2-1.2.3.1.1.6.3 1.5.3s1.4-.2 1.5-.3c-.1-.1-.5-.3-1.4-.3-.1 0-.2-.1-.2-.2z"/><path d="m-235.9 337.1c-1.1 0-2.5-.2-3-.7-.1-.1-.2-.2-.2-.4 0-.8 1.7-1.1 3.2-1.1s3.2.4 3.2 1.1c0 .2 0 .3-.2.4-.4.4-1.7.7-3 .7zm0-1.7c-1.8 0-2.7.5-2.7.6 0 0 0 .1.1.1.3.3 1.3.6 2.7.6 1.3 0 2.4-.3 2.7-.6l.2-.1h-.2c0-.2-1-.6-2.8-.6zm-2.7-34.5c-.1 0-.1 0-.2-.1s-.1-.2 0-.3c0 0 1.4-1.7 1.4-3.1 0-.2-.1-.4-.2-.5-.3-.2-.8-.3-1.4-.3-.1 0-.2-.1-.3-.2 0-.1.1-.2.2-.3.4 0 1.3 0 1.8.4.2.2.4.5.4.9 0 1.5-1.5 3.3-1.5 3.4-.1.1-.2.1-.2.1zm-16.4-.9c-.1 0-.2-.1-.2-.2s.1-.3.2-.3c.8-.1 1.6-.2 2.5-.3.1 0 .2.1.3.2 0 .1-.1.2-.2.3-1 .1-1.8.1-2.6.3zm3.1-.4c-.1 0-.2-.1-.2-.2s.1-.2.2-.2c1-.1 2-.1 3.1-.1.1 0 .2.1.2.2s-.1.2-.2.2c-1.1.1-2.1.1-3.1.1zm7 .1c-1-.1-2.1-.1-3.2-.1-.1 0-.2-.1-.2-.2s.1-.2.2-.2c1.1 0 2.2.1 3.2.1.1 0 .2.1.2.3 0 0-.1.1-.2.1z"/><path d="m-248.7 302.9c-3.4 0-9.9-.4-9.9-1.9 0-.4.3-.9 2.9-1.4.1 0 .3.1.3.2s-.1.3-.2.3c-2.5.4-2.6.9-2.6.9 0 .5 3.2 1.4 9.4 1.4s9.4-.9 9.4-1.4c0-.1-.3-.5-1.9-.8-.1 0-.2-.2-.2-.3s.2-.2.3-.2c2.2.5 2.4.9 2.4 1.3 0 1.5-6.5 1.9-9.9 1.9zm6.9-2.8c-.6-.1-1.5-.2-2.5-.3-.1 0-.2-.1-.2-.3 0-.1.1-.2.3-.2 1.1.1 2 .2 2.5.3.1 0 .2.1.2.3-.1.1-.2.2-.3.2zm-16.4-7.4c-.2 0-.7-.4-.7-.9 0-.4.1-.6.1-.8s.1-.3.1-.6c.1-.1.2-.2.3-.2h.2c.2.1.3.2.4.3.2.2.4.3.6.7.3.4.1 1 .1 1 0 .1-.2.2-.3.1-.1 0-.2-.2-.1-.3s.1-.4 0-.6c-.2-.2-.4-.3-.6-.5 0 0-.1 0-.1-.1 0 .1 0 .2-.1.3 0 .2 0 .4-.1.7 0 .2.3.4.4.4.1.1.1.2 0 .3 0 .1-.1.2-.2.2z"/><path d="m-258.2 294.3c-.5-.1-1-1.2-.9-1.7 0-.3.3-.5.7-.5.3.1.5.1.7.2.1-.1.2-.3.4-.6.3-.3.6-.3.8-.1.4.4.6 1.6.3 1.9-.1.1-.2.1-.3 0-.1 0-.1-.2-.1-.3.1-.1.1-.6-.1-1 0-.2-.1-.3-.1-.3s-.1 0-.1.1c-.4.5-.4.7-.4.7 0 .1 0 .2-.2.3-.1 0-.3 0-.3-.2 0 0-.1-.1-.6-.2h-.2c-.1.4.3 1.2.5 1.2.1 0 .2.1.2.3 0 .1-.1.2-.3.2z"/><path d="m-257.6 296c-.5-.1-1-1.2-.9-1.7 0-.3.3-.5.7-.5.3 0 .5.1.7.2 0-.1.1-.3.3-.6.3-.3.7-.3.8-.1.5.4.6 1.6.3 1.9-.1.1-.2.2-.3.1s-.1-.3 0-.4c0-.1 0-.6-.1-1-.1-.2-.2-.3-.2-.3s-.1 0-.1.1c-.4.5-.4.7-.4.7 0 .1 0 .2-.2.3-.1 0-.3 0-.3-.2 0 0-.1-.1-.6-.2h-.2c-.1.4.3 1.2.5 1.2.1 0 .2.1.2.3 0 .1-.1.2-.2.2z"/><path d="m-257.1 297.7c-.5-.1-1-1.2-.9-1.7 0-.3.3-.5.7-.5.3 0 .5.1.7.2.1-.2.2-.3.4-.6.3-.3.6-.3.8-.1.4.4.6 1.6.3 1.9-.1.1-.2.1-.3 0s-.1-.2 0-.3.1-.6-.1-1l-.3-.3s-.1 0-.1.1c-.4.5-.4.7-.4.7 0 .1 0 .2-.2.3-.1 0-.3 0-.3-.2 0 0-.1-.1-.6-.2h-.2c0 .4.4 1.2.5 1.2s.2.1.2.3c0 .1-.1.2-.2.2z"/><path d="m-255.9 299.5c-1 0-1.6-1-1.6-1.7 0-.4.3-.7.6-.7s.5.1.7.1c.1-.1.2-.3.5-.5.5-.3 1 0 1.2.7s0 1.6-.9 2.1zm-1-1.9s-.1 0-.1.2c0 .6.6 1.4 1.4 1.2.6-.3.8-1 .6-1.5-.1-.3-.2-.5-.3-.5h-.1c-.5.4-.4.6-.4.6 0 .1 0 .3-.1.3s-.2 0-.3-.1c-.1 0-.1-.2-.7-.2z"/><path d="m-254.2 302.6c-.1 0-.2-.1-.2-.2l-1.1-3.3c0-.1 0-.3.1-.3s.3 0 .3.1l1.1 3.3c.1.2 0 .3-.2.4.1 0 .1 0 0 0zm-.7-.1c-.1 0-.2-.1-.2-.2l-1-2.9c0-.1 0-.3.2-.3.1 0 .3 0 .3.2l.9 2.9c0 .1-.1.2-.2.3zm1.1-12.1c-.1 0-.1 0-.2-.1-.1 0-.5-.5-.4-1 .1-.4.2-.6.3-.8.1-.1.1-.3.2-.6 0-.1.1-.1.2-.2.1 0 .2 0 .2.1.1.2.2.3.3.4.2.2.4.4.5.8.2.4-.1 1-.1 1 0 .3-.1.3-.2.2s-.1-.2-.1-.3c.1-.1.2-.4.1-.6-.2-.3-.3-.5-.5-.7l-.1-.1c0 .1-.1.2-.1.2-.1.2-.2.4-.2.7 0 .2.2.4.2.5.1.1.1.2 0 .3 0 .2 0 .2-.1.2z"/><path d="m-254.1 292c-.1 0-.1 0 0 0-.5-.2-.9-1.3-.6-1.9.1-.3.4-.5.8-.3.3.1.5.2.6.3l.5-.5c.4-.3.7-.1.9.1.3.5.3 1.7-.1 2-.1.1-.3.1-.3 0-.1-.1-.1-.3 0-.3.1-.1.2-1.1 0-1.3 0 0 0-.1-.2 0-.5.3-.5.5-.5.5 0 .1-.1.2-.2.2s-.2-.1-.3-.2c0 0-.1-.1-.6-.3-.1-.1-.2 0-.2 0-.2.3.1 1.2.3 1.3.1 0 .2.2.1.3-.1 0-.2.1-.2.1z"/><path d="m-253.9 293.8c-.1 0-.1 0 0 0-.5-.2-.9-1.3-.6-1.9.1-.3.4-.5.8-.3.3.1.5.2.6.3l.5-.5c.4-.3.7-.1.9.1.3.5.3 1.7-.1 2-.1.1-.3.1-.3-.1-.1-.1-.1-.3 0-.3.1-.2.2-1.1 0-1.3 0 0 0-.1-.2 0-.5.3-.5.5-.5.5 0 .1-.1.2-.2.2s-.2-.1-.3-.2c0 0-.1-.1-.6-.3-.2-.1-.2 0-.2 0-.2.4.1 1.2.3 1.3.1.1.2.2.1.3s-.1.2-.2.2z"/><path d="m-253.7 295.6c-.1 0-.1 0 0 0-.5-.2-.9-1.3-.6-1.9 0-.3.3-.5.7-.3.3.1.5.2.6.3l.5-.5c.4-.3.7-.1.9.1.3.5.3 1.7-.1 1.9 0 .1-.2.1-.3 0s-.1-.3 0-.3c.1-.2.2-1.1 0-1.3 0 0 0-.1-.2 0-.4.4-.4.6-.4.6 0 .1-.1.2-.2.2s-.2-.1-.3-.2c0 0-.1-.1-.6-.3-.2-.1-.2 0-.2 0-.2.3.1 1.2.3 1.3.1 0 .2.2.1.3 0 0-.1.1-.2.1z"/><path d="m-252.5 297.6c-1.1 0-1.7-1.1-1.7-1.8 0-.2 0-.4.1-.5.1-.2.4-.3.7-.3.3.1.5.2.7.3.1-.1.3-.3.6-.4.5-.2 1 .2 1.1.8.1.7-.3 1.7-1.3 1.9zm-1.1-2.1c-.1 0-.1 0-.1.1s-.1.2-.1.3c0 .5.4 1.3 1.2 1.3h.1c.7-.2 1-.9.9-1.4 0-.3-.2-.5-.4-.5-.4.2-.5.4-.5.5s-.1.2-.2.3c-.1 0-.2-.1-.3-.2.1-.1 0-.3-.6-.4zm2.1 7.3c-.1 0-.2-.1-.2-.2l-.6-5.2c0-.1.1-.2.2-.3.1 0 .2.1.3.2l.6 5.2c-.1.2-.2.3-.3.3zm-.7-.1c-.1 0-.2-.1-.2-.2l-.6-5.1c0-.1.1-.2.2-.3.1 0 .2.1.3.2l.6 5.1c-.1.2-.2.3-.3.3zm3.3-12.8c-.1 0-.1 0-.2-.1s-.5-.5-.3-1c.1-.3.3-.5.4-.7.1-.1.2-.3.3-.5 0-.1.1-.1.2-.1s.2 0 .2.1c.1.2.2.3.3.4.2.2.3.4.5.9s-.3 1-.3 1c-.1.1-.2.1-.3 0s-.1-.2 0-.3.3-.4.2-.5c-.1-.5-.2-.6-.4-.9l-.1-.1c-.1.1-.1.2-.2.2-.1.2-.2.3-.4.6-.1.2.1.4.2.5s.1.2 0 .3c0 .2-.1.2-.1.2z"/><path d="m-249.5 291.4h-.1c-.4-.2-.7-1.3-.4-1.9.1-.3.4-.5.9-.2.3.2.5.3.7.4.1-.1.3-.3.7-.4.5-.2.8 0 .9.2.3.5 0 1.7-.4 1.9-.1.1-.3 0-.3-.1-.1-.1 0-.3.1-.3.2-.1.4-.9.2-1.3 0 0-.1-.1-.3 0-.6.3-.7.5-.7.5 0 .1-.1.2-.2.2s-.2-.1-.2-.2c0 0-.1-.1-.6-.4-.2-.1-.2 0-.3 0-.2.3 0 1.2.2 1.3.1.1.2.2.1.3z"/><path d="m-249.5 293.2h-.1c-.4-.2-.7-1.3-.4-1.9.1-.3.4-.5.9-.2.3.2.5.3.7.4.1-.1.3-.3.7-.4.3-.2.6-.1.7 0 .2.2.3.5.3 1 0 .3-.1 1-.5 1.2-.1.1-.3 0-.3-.1-.1-.1 0-.3.1-.3.2-.1.4-.9.2-1.3 0 0-.1-.1-.3 0-.6.3-.7.5-.7.5 0 .1-.1.2-.2.2s-.2-.1-.2-.2c0 0-.1-.1-.6-.4-.2-.1-.2 0-.3 0-.2.3 0 1.2.2 1.3.1.1.2.2.1.3-.1-.1-.2-.1-.3-.1z"/><path d="m-249.5 295h-.1c-.4-.2-.7-1.4-.4-1.9.1-.3.4-.5.9-.2.3.2.5.3.7.4.1-.1.3-.3.7-.4.5-.2.8 0 .9.2.3.5 0 1.7-.4 1.9-.1.1-.3 0-.3-.1-.1-.1 0-.3.1-.3.2-.1.4-.9.2-1.3 0 0-.1-.1-.3 0-.6.3-.7.5-.7.5 0 .1-.1.2-.2.2s-.2-.1-.2-.3c0 0-.1-.2-.6-.4-.2-.1-.2 0-.3 0-.2.3 0 1.2.2 1.3.1.1.2.2.1.3-.2.1-.2.1-.3.1z"/><path d="m-248.4 297.3c-1.2-.1-1.7-1.2-1.7-1.9 0-.6.4-1 1-.8.3.1.6.2.7.4.1-.1.4-.3.7-.4.5-.1 1 .2 1 .9s-.5 1.6-1.7 1.8zm-1-2.3c-.2 0-.2.3-.2.4 0 .5.4 1.3 1.2 1.4 1-.1 1.3-.9 1.2-1.3 0-.2-.1-.5-.4-.4-.5.1-.6.3-.6.4s-.1.2-.2.2-.2-.1-.2-.2v-.1s-.1-.2-.6-.4z"/><path d="m-248.1 302.8c-.1 0-.2-.1-.2-.2v-5.6c0-.1.1-.2.2-.2s.2.1.2.2v5.6c.1.1-.1.2-.2.2zm-.7 0c-.1 0-.2-.1-.2-.2v-5.7c0-.1.1-.2.2-.2s.2.1.2.2v5.7c0 .1-.1.2-.2.2zm10.1-10.1c-.1 0-.2 0-.2-.1-.1-.1 0-.3.1-.3.1-.1.3-.3.3-.4 0-.3-.1-.5-.1-.7 0-.1 0-.2-.1-.3l-.1.1c-.2.2-.4.3-.6.6-.1.1 0 .4 0 .6 0 .1 0 .3-.1.3s-.3 0-.3-.1-.2-.6.1-1c.3-.3.4-.5.7-.7.1-.1.2-.2.4-.3.1-.1.2-.1.2 0 .1 0 .1.1.2.2 0 .3.1.5.1.6 0 0 .1.2.1.6 0 .5-.5.8-.5.9-.1-.1-.1 0-.2 0zm.1 1.6c-.1 0-.2-.1-.2-.2s.1-.3.2-.3c.2-.1.6-.8.5-1.2 0 0 0-.1-.2 0-.6.1-.7.2-.7.2 0 .1-.2.2-.3.1-.1 0-.2-.2-.1-.3 0 0 0-.2-.4-.6-.1 0-.2-.1-.2-.1l-.2.2c-.2.4-.2.9-.1 1s.1.2 0 .3-.3.1-.3 0c-.3-.3-.1-1.6.3-1.9.2-.2.5-.2.8.1.2.2.3.4.4.6.2 0 .4 0 .7-.1.4-.1.7.1.7.5.1.5-.4 1.6-.9 1.7zm-.6 1.7c-.1 0-.2-.1-.2-.2s.1-.3.2-.3c.2-.1.6-.8.5-1.2 0 0 0-.1-.2 0-.5.1-.7.2-.7.2 0 .1-.2.2-.3.1-.1 0-.1-.1-.1-.3 0 0 0-.2-.4-.6l-.1-.1s-.1.1-.2.3c-.2.4-.2.9-.1 1s.1.2 0 .3-.3.1-.3 0c-.3-.4-.1-1.6.3-1.9.2-.2.5-.2.8.1.2.2.3.4.4.6.1-.1.4-.1.7-.2.5-.1.7.2.7.5 0 .5-.5 1.6-1 1.7zm-.5 1.7c-.1 0-.2-.1-.2-.2s.1-.3.2-.3c.2-.1.6-.9.5-1.2 0 0 0-.1-.2 0-.6.1-.7.2-.7.2 0 .1-.2.2-.3.1-.1 0-.2-.2-.2-.3 0 0 0-.2-.4-.6v-.1s-.1.1-.2.3c-.2.4-.2.9-.1 1s.1.2 0 .3-.3.1-.3 0c-.3-.4-.1-1.6.3-1.9.2-.2.5-.2.8.1.2.2.3.4.4.6.1-.1.4-.1.7-.2.4-.1.7.2.7.5 0 .5-.5 1.6-1 1.7z"/><path d="m-240.9 299.5c-.1 0-.3 0-.4-.1-.9-.5-1.1-1.4-1-2.1.2-.7.8-1 1.2-.7.3.2.4.4.5.5.2-.1.4-.1.7-.1s.4.1.5.2.2.3.2.5c-.1.8-.7 1.8-1.7 1.8zm-.6-2.5c-.1 0-.3.2-.3.5-.1.5 0 1.2.7 1.5h.2c.6 0 1.1-.7 1.1-1.2v-.2h-.1c-.4 0-.6.1-.6.2s-.2.2-.3.1c-.1 0-.2-.1-.2-.3v-.1s0-.2-.4-.5z"/><path d="m-242.5 302.5c-.1 0-.1 0 0 0-.2-.1-.3-.2-.2-.3l1-3.2c0-.1.2-.2.3-.2s.2.2.2.3l-1 3.2c-.2.1-.2.2-.3.2zm.7-.1c-.1 0-.1 0 0 0-.2 0-.3-.2-.2-.3l.8-2.9c0-.1.2-.2.3-.2s.2.2.2.3l-.9 2.9c0 .1-.1.2-.2.2zm-1.2-12c-.1 0-.1 0-.2-.1s-.1-.2 0-.3.3-.3.2-.5c0-.3-.1-.5-.1-.7 0-.1-.1-.1-.1-.2l-.1.1c-.2.2-.3.4-.5.7-.1.2.1.4.1.5.1.1 0 .3-.1.3-.1.1-.3 0-.3-.1s-.4-.6-.2-1 .3-.6.6-.8c.1-.1.2-.2.3-.4.1-.1.1-.1.2-.1s.2.1.2.2c.1.3.2.4.2.6.1.2.2.4.3.8.1.5-.3.9-.5 1z"/><path d="m-242.7 292c-.1 0-.2-.1-.2-.2s0-.3.1-.3c.2-.1.4-.9.3-1.3 0 0 0-.1-.2 0-.5.2-.6.4-.6.4 0 .1-.1.2-.3.2-.1 0-.2-.1-.2-.3 0 0-.1-.2-.5-.5-.1-.1-.2-.1-.2 0-.2.2-.2 1.2 0 1.3.1.1.1.2 0 .3s-.2.1-.3 0c-.4-.3-.4-1.5-.1-2 .2-.2.5-.4.8-.1.3.2.4.3.5.5.1-.1.3-.2.6-.3.4-.2.7 0 .8.3.4.7.1 1.8-.5 2 .1 0 .1 0 0 0z"/><path d="m-242.9 293.8c-.1 0-.2-.1-.2-.1-.1-.1 0-.3.1-.3.2-.1.4-1 .3-1.3 0 0 0-.1-.2 0-.5.2-.6.4-.6.4 0 .1-.1.2-.3.2-.1 0-.2-.1-.2-.3 0 0-.1-.2-.5-.5-.1-.1-.2-.1-.2 0-.2.2-.2 1.2 0 1.3.1.1.1.2 0 .3s-.2.1-.3.1c-.4-.3-.4-1.5-.1-2 .2-.2.5-.4.9-.1.3.2.4.3.5.5.1-.1.3-.2.6-.3.4-.2.7 0 .8.3.3.4 0 1.6-.6 1.8.1 0 .1 0 0 0zm-.2 1.8c-.1 0-.2-.1-.2-.2s0-.3.1-.3c.2-.1.4-1 .3-1.3 0 0 0-.1-.2 0-.5.2-.6.4-.6.4 0 .1-.1.2-.3.2-.1 0-.2-.1-.2-.3 0 0-.1-.2-.5-.5-.1-.1-.2-.1-.2 0-.2.2-.2 1.2 0 1.3.1.1.1.2.1.3-.1.1-.2.1-.3.1-.4-.3-.4-1.5-.1-1.9.2-.2.5-.4.9-.1.3.2.4.3.5.5.1-.1.3-.2.6-.3.4-.2.7 0 .8.3.2.4-.2 1.6-.7 1.8.1 0 .1 0 0 0z"/><path d="m-244.3 297.6h-.1c-1.1-.3-1.5-1.2-1.4-1.9s.6-1 1.1-.8c.3.1.5.3.6.4.1-.1.3-.2.7-.3.5-.1.8.2.8.8 0 .8-.6 1.8-1.7 1.8zm-.7-2.3c-.1 0-.3.2-.3.5-.1.5.2 1.2 1 1.4.8 0 1.2-.9 1.2-1.3 0-.1 0-.4-.2-.3-.5.1-.6.3-.6.3 0 .1-.2.2-.3.2s-.2-.1-.2-.2-.1-.3-.5-.5c0-.1 0-.1-.1-.1zm-.3 7.5c-.2 0-.3-.1-.2-.3l.6-5.2c0-.1.1-.2.3-.2.1 0 .2.1.2.3l-.6 5.1c0 .2-.1.3-.3.3zm.7-.1c-.2 0-.3-.1-.2-.3l.6-5.1c0-.1.1-.2.3-.2.1 0 .2.1.2.3l-.6 5.1c-.1.1-.2.2-.3.2z"/><path d="m-248.7 305c-5.4 0-10.4-1.5-10.4-2.7 0-.1.1-.2.2-.2s.2.1.2.2c0 .5 4.1 2.2 9.9 2.2s9.9-1.7 9.9-2.3c0-.1.1-.2.2-.2s.2.1.2.2c.2 1.3-4.8 2.8-10.2 2.8zm0 2.2c-5.3 0-10.1-1.5-10.1-2.7 0-.1.1-.2.2-.2s.2.1.2.2c0 .6 3.9 2.3 9.6 2.3 5.2 0 9-1.4 9.6-2.2.1-.1.2-.1.3-.1.1.1.1.2.1.3-.6 1-4.8 2.4-9.9 2.4zm0 2.2c-5.3 0-9.6-1.5-9.6-2.7 0-.1.1-.2.2-.2s.2.1.2.2c0 .5 3.2 2.2 9.1 2.2 5 0 8.5-1.1 9.1-1.9.1-.1.2-.1.3-.1.1.1.1.2.1.3-.6 1.1-4.4 2.2-9.4 2.2zm0 2.2c-4.7 0-7.7-1.1-8.5-2.1-.1-.1-.1-.3 0-.3.1-.1.2-.1.3 0 .6.7 3.4 1.9 8.1 1.9 4.8 0 7.9-1.2 8.4-2.1.1-.1.2-.1.3-.1.1.1.1.2.1.3-.4 1.1-3.6 2.4-8.7 2.4z"/><path d="m-249.2 313.4c-1 0-1.8-.7-2-8.7 0-.1.1-.2.2-.2s.2.1.2.2c.2 7.2.9 8.2 1.6 8.2.1 0 .2.1.2.2 0 .2-.1.3-.2.3zm-2.1-.1c-1.9-.6-2.8-1.9-3.3-9.1 0-.1.1-.2.2-.3.1 0 .2.1.3.2.5 6.8 1.3 8.1 2.9 8.6.1 0 .2.2.2.3-.1.2-.2.3-.3.3zm-2.6-.6c-2-1.3-2.7-5-3.2-8.2l-.2-.9c0-.1.1-.3.2-.3s.3.1.3.2l.2.9c.6 3.2 1.2 6.7 2.9 7.9.1.1.1.2.1.3-.2.1-.3.1-.3.1zm5.7.7c-.1 0-.2-.1-.2-.2s.1-.2.2-.3c.6 0 1.4-.1 1.3-8.2 0-.1.1-.2.2-.2s.2.1.2.2c.2 8-.6 8.6-1.7 8.7zm1.9-.1c-.1 0-.2-.1-.2-.2s0-.3.2-.3c2.2-.6 2.8-1.5 3.3-8.7 0-.1.1-.3.3-.2.1 0 .2.1.2.3-.6 7.1-1.1 8.4-3.8 9.1z"/><path d="m-243.6 312.9c-.1 0-.2-.1-.2-.2s0-.3.1-.3c1.8-.7 2.9-3.6 3.5-9.1 0-.1.1-.2.3-.2.1 0 .2.1.2.3-.6 5.8-1.8 8.7-3.9 9.5zm-15.2-12c-.1 0-.1 0-.2-.1s-1.5-1.9-1.5-3.4c0-.5.2-.8.6-1.1.8-.4 2.1-.2 2.3-.1.1.1.1.2.1.3-.1.2-.2.3-.3.2-.2-.1-1.3-.2-1.9.1-.2.1-.4.4-.4.6 0 1.3 1.4 3.1 1.4 3.1.1.1.1.3 0 .3 0 .1-.1.1-.1.1z"/><path d="m-257.8 300.6c-.1 0-.2 0-.2-.1-.5-.7-1.6-2.3-1.5-2.9 0-.1.1-.2.2-.3h.1c.5-.2.8-.3 2 .1.1 0 .2.2.2.3s-.2.2-.3.2c-1.1-.4-1.2-.3-1.7-.2 0 .3.6 1.5 1.4 2.6.1.1.1.3-.2.3zm18.3.1h-.1c-.1-.1-.1-.2-.1-.3.8-1.2 1.4-2.4 1.3-2.6-.1-.1-.5-.3-1.1-.1-.1 0-.3 0-.3-.2 0-.1 0-.3.2-.3.7-.2 1.3-.1 1.6.3.4.5-.6 2.2-1.3 3.2z"/><path d="m-248.7 313.4c-5.4 0-6.7-1.2-7.8-2.6-.4-.5-2.4-3.5-2.7-9.9 0-.2 0-.3.1-.4s.2-.1.3 0 .1.2 0 .3v.1c.3 6.2 2.2 9.1 2.6 9.6.8 1.1 1.8 2.4 7.4 2.4 4.7 0 6-.7 7.1-1.6 1-.8 2.4-4.4 2.9-10.4l-.1-.1c-.1-.1-.1-.2 0-.3s.2-.1.3 0 .3.3.3.5c-.5 5.4-1.7 9.7-3.1 10.8-1 .8-2.4 1.6-7.3 1.6zm-9.9-21.3c-.1 0-.2 0-.2-.1-.2-.5-.6-1-1.2-1-.1 0-.2-.1-.3-.2 0-.1.1-.2.2-.3.5-.1 1.2.1 1.7 1.2.1.1 0 .3-.1.3 0 .1-.1.1-.1.1zm.2-1.2c-.1 0-.2-.1-.2-.2 0 0-.3-1.1-1-1.2-.1 0-.2-.1-.2-.3 0-.1.1-.2.3-.2 1 .1 1.4 1.5 1.5 1.5-.1.2-.2.4-.4.4.1 0 .1 0 0 0zm.1-.3c-.1 0-.2 0-.2-.1 0 0-.5-.8-.1-1.7.1-.1.2-.2.3-.1s.2.2.1.3c-.3.7 0 1.2 0 1.2.1.1 0 .3-.1.3zm-.3 2c-.1 0-.2-.1-.2-.2 0 0-.1-.2-.7-.4-.1 0-.2-.2-.2-.3s.2-.2.3-.2c1 .3 1.1.7 1.1.8s-.1.3-.3.3c.1 0 .1 0 0 0zm1.2-1.1c-.1 0-.2-.1-.2-.2 0 0-.3-.9.4-1.7.1-.1.2-.1.3 0s.1.2 0 .3c-.4.7-.3 1.3-.2 1.3 0 .1-.1.3-.3.3.1 0 .1 0 0 0zm3.3-1.7c-.1 0-.2-.1-.2-.2 0 0-.4-1.1-1.1-1.1-.1 0-.2-.1-.2-.2s.1-.2.2-.2c1 0 1.5 1.3 1.6 1.4 0 .1-.1.2-.3.3.1 0 .1 0 0 0zm.5-1.3c-.1 0-.2-.1-.2-.2 0 0-.2-1.1-.9-1.3-.1 0-.2-.1-.2-.3 0-.1.1-.2.3-.2 1 .2 1.3 1.6 1.3 1.6-.1.3-.2.4-.3.4z"/><path d="m-253.6 288.3c-.1 0-.2 0-.2-.1 0 0-.4-.8.1-1.7.1-.1.2-.1.3-.1.1.1.1.2.1.3-.4.6-.1 1.2-.1 1.2.1.1 0 .3-.1.3 0 .1-.1.1-.1.1zm-.5 2c-.1 0-.2-.1-.2-.2 0 0-.1-.2-.7-.5-.1 0-.2-.2-.1-.3s.1-.2.2-.1c.9.3 1 .7 1 .9 0 .1-.1.2-.2.2zm1.3-1c-.1 0-.2-.1-.2-.2 0 0-.2-.9.6-1.6.1-.1.2-.1.3 0s.1.2 0 .3c-.6.5-.4 1.2-.4 1.2-.1.2-.2.3-.3.3zm3.7-.1c-.1 0-.2-.1-.2-.2 0 0-.2-1.1-.9-1.3-.1 0-.2-.1-.2-.3 0-.1.1-.2.3-.2 1 .2 1.3 1.6 1.3 1.7-.1.1-.2.3-.3.3zm.6-1.1c-.1 0-.2-.1-.2-.2 0 0 0-1.2-.7-1.4-.1-.1-.2-.2-.1-.3 0-.1.2-.2.3-.1 1 .4 1 1.8 1 1.9-.1 0-.2.1-.3.1z"/><path d="m-248.4 287.8c-.1 0-.2-.1-.2-.2 0 0-.3-.9.4-1.6.1-.1.2-.1.3 0s.1.2 0 .3c-.5.6-.3 1.2-.3 1.2.1.1 0 .3-.2.3zm-.9 1.8c-.2 0-.2-.1-.2-.3 0 0 0-.3-.6-.6-.1-.1-.1-.2-.1-.3.1-.1.2-.1.3-.1.9.5.8 1 .8 1.1s-.1.2-.2.2zm1.5-.7c-.1 0-.2-.1-.2-.2 0 0 0-.9.9-1.5.1-.1.3 0 .3.1.1.1 0 .3-.1.3-.7.4-.7 1-.7 1 0 .2-.1.3-.2.3zm9.5 3.3h-.1c-.1-.1-.2-.2-.1-.3 0-.1.7-1.2 1.8-1 .1 0 .2.1.2.3 0 .1-.1.2-.3.2-.7-.1-1.3.8-1.3.8 0-.1-.1 0-.2 0zm-.2-1.3c-.2-.1-.3-.2-.2-.3 0-.1.5-1.4 1.6-1.4.1 0 .2.1.2.2s-.1.2-.2.2c-.7 0-1.1 1.1-1.1 1.1-.1.1-.2.2-.3.2z"/><path d="m-238.5 290.6c-.1 0-.1 0-.1-.1-.1-.1-.1-.2 0-.3 0 0 .4-.5.1-1.2 0-.1 0-.3.1-.3s.3 0 .3.1c.4 1-.2 1.7-.2 1.7 0 .1-.1.1-.2.1zm.2 2.1c-.2 0-.3-.2-.2-.3 0-.1.2-.5 1.1-.7.1 0 .3.1.3.2s-.1.3-.2.3c-.7.1-.8.3-.8.3 0 .1-.1.2-.2.2zm-1.1-1.2c-.1 0-.1 0 0 0-.2-.1-.3-.2-.2-.3 0 0 .2-.6-.3-1.2-.1-.1-.1-.3 0-.3.1-.1.3-.1.3 0 .7.8.3 1.7.3 1.7 0 .1 0 .1-.1.1zm-3.3-1.7c-.2 0-.3-.2-.2-.3 0-.1.4-1.4 1.4-1.5.1 0 .2.1.3.2 0 .1-.1.2-.2.3-.7.1-1 1.2-1 1.2-.1 0-.2.1-.3.1zm-.4-1.2c-.1 0-.2-.1-.2-.3 0-.1.1-1.5 1.1-1.8.1 0 .3 0 .3.2 0 .1 0 .3-.2.3-.7.2-.8 1.4-.8 1.4 0 .1-.1.2-.2.2z"/><path d="m-243.2 288.4c-.2-.1-.3-.2-.2-.3 0 0 .2-.6-.2-1.2-.1-.1-.1-.3 0-.3.1-.1.3-.1.3 0 .7.8.4 1.6.4 1.6-.1.1-.2.2-.3.2zm.7 1.9c-.1 0-.2-.1-.2-.2s0-.5.9-1c.1-.1.3 0 .3.1.1.1 0 .3-.1.3-.6.3-.6.5-.6.5s-.3.3-.3.3zm-1.5-.9c-.2 0-.3-.1-.2-.2 0-.2.1-.6-.6-1.1-.1-.1-.1-.2-.1-.3.1-.1.2-.1.3-.1.9.6.8 1.3.8 1.5 0 .1-.1.2-.2.2zm57.3 11.5c-.1 0-.1 0-.2-.1s-.1-.2 0-.3c0 0 1.4-1.7 1.4-3.1 0-.2-.1-.4-.2-.5-.4-.3-1.1-.3-1.4-.3-.1 0-.2-.1-.3-.2 0-.1.1-.2.2-.3.4 0 1.3 0 1.8.4.3.3.4.6.4.9 0 1.5-1.5 3.3-1.5 3.4-.1.1-.1.1-.2.1zm-16.4-.9c-.1 0-.2-.1-.2-.2s.1-.3.2-.3c.8-.1 1.6-.2 2.5-.3.1 0 .2.1.3.2 0 .1-.1.2-.2.3-1 .1-1.8.1-2.6.3zm3.2-.4c-.1 0-.2-.1-.2-.2-.1-.1 0-.2.1-.2 1-.1 2-.1 3.1-.1.1 0 .2.1.2.2s-.1.2-.2.2c-1 .1-2 .1-3 .1zm6.9.1c-1-.1-2.1-.1-3.2-.1-.1 0-.2-.1-.2-.2s.1-.2.2-.2c1.1 0 2.2.1 3.2.1.1 0 .2.1.2.3.1 0 0 .1-.2.1z"/><path d="m-196.8 302.9c-3.4 0-9.9-.4-9.9-1.9 0-.4.3-.9 2.9-1.4.1 0 .3.1.3.2s-.1.3-.2.3c-2.5.4-2.5.9-2.5.9 0 .5 3.2 1.4 9.4 1.4s9.4-.9 9.4-1.4c0-.1-.3-.5-1.9-.8-.1 0-.2-.2-.2-.3s.2-.2.3-.2c2.1.4 2.3.9 2.3 1.3 0 1.5-6.5 1.9-9.9 1.9zm7-2.8c-.1 0-.1 0 0 0-.6-.1-1.5-.2-2.5-.3-.1 0-.2-.1-.2-.3s.1-.2.3-.2c1.1.1 1.9.2 2.5.3.1 0 .2.1.2.3-.1.1-.2.2-.3.2zm-16.4-7.4h-.1c-.1 0-.6-.4-.5-.9 0-.4.1-.6.1-.8s.1-.3.1-.6c0-.1.1-.2.2-.2h.2c.2.1.3.2.4.3.2.2.4.3.7.6.3.4.1 1 0 1 0 .1-.2.2-.3.1-.1 0-.2-.2-.1-.3 0-.1.1-.4 0-.6-.2-.3-.3-.4-.6-.6 0 0-.1 0-.1-.1 0 .1 0 .2-.1.3-.1.2-.1.4-.1.7 0 .2.2.4.3.4.1.3.2.4.1.5s-.1.2-.2.2z"/><path d="m-206.2 294.3c-.5-.1-1-1.2-.9-1.7 0-.3.3-.5.7-.5.3 0 .5.1.7.2.1-.2.2-.3.4-.6.3-.3.6-.3.8-.1.4.4.6 1.6.3 1.9-.1.1-.2.1-.3 0s-.1-.2 0-.3.1-.7-.1-1.1c-.1-.2-.1-.2-.2-.2 0 0-.1 0-.1.1-.4.4-.4.6-.4.6 0 .1 0 .2-.2.3-.1 0-.3 0-.3-.2 0 0-.1-.1-.6-.2h-.2c-.1.3.3 1.1.5 1.2.1.1.1.3.1.4s-.1.2-.2.2z"/><path d="m-205.7 296c-.5-.1-1-1.2-.9-1.7 0-.3.2-.5.7-.5.3 0 .5.1.7.2.1-.2.2-.3.4-.6.3-.3.6-.3.8-.1.4.4.6 1.6.3 1.9-.1.1-.2.1-.3 0s-.1-.2 0-.3.1-.6-.1-1c-.1-.2-.1-.2-.2-.2 0 0-.1 0-.1.1-.4.4-.4.6-.4.6 0 .1 0 .2-.2.3-.1 0-.3 0-.3-.2 0 0-.1-.1-.6-.2h-.2c-.1.3.3 1.1.5 1.2.1 0 .2.1.2.3-.1.1-.2.2-.3.2z"/><path d="m-205.2 297.7c-.5-.1-1-1.2-.9-1.7 0-.3.3-.5.7-.5.3 0 .5.1.7.2.1-.2.2-.3.4-.6.3-.3.6-.3.8-.1.4.4.6 1.6.3 1.9-.1.1-.2.1-.3 0s-.1-.2 0-.3.1-.6-.1-1c-.1-.2-.1-.2-.2-.3 0 0-.1 0-.1.1-.4.5-.4.6-.4.6 0 .1 0 .2-.2.3-.1 0-.3 0-.3-.2 0 0-.1-.1-.6-.2h-.2c-.1.5.3 1.3.5 1.3.1 0 .2.1.2.3-.1.1-.2.2-.3.2z"/><path d="m-204 299.5c-1 0-1.6-1-1.6-1.7 0-.4.3-.7.6-.7s.5.1.7.1c.1-.2.2-.4.5-.5.4-.3 1 0 1.2.7s0 1.6-.9 2.1zm-.9-1.9c-.1 0-.2 0-.2.2 0 .5.5 1.2 1.1 1.2h.3c.6-.3.8-1 .6-1.5-.1-.3-.2-.5-.3-.5h-.1c-.4.3-.4.5-.4.6s0 .3-.1.3-.2 0-.3-.1c0-.1-.2-.2-.6-.2z"/><path d="m-202.2 302.6c-.1 0-.2-.1-.2-.2l-1.1-3.3c0-.1 0-.3.2-.3.1 0 .3 0 .3.2l1.1 3.3c0 .1-.1.2-.3.3zm-.8-.1c-.1 0-.2-.1-.2-.2l-.9-2.9c0-.1 0-.3.2-.3.1 0 .3 0 .3.2l.9 2.9c0 .1-.1.2-.3.3zm1.2-12.1c-.1 0-.1 0-.2-.1-.1 0-.5-.5-.4-1 .1-.4.2-.6.3-.8.1-.1.1-.2.2-.5 0-.1.1-.1.2-.2.1 0 .2 0 .2.1.1.2.2.3.3.4.2.2.4.4.5.8.2.4-.1 1-.2 1 .1.2-.1.2-.2.1s-.1-.2-.1-.3c.1-.1.2-.4.1-.6-.2-.3-.3-.5-.5-.7l-.1-.1c0 .1-.1.2-.1.2-.1.2-.2.4-.2.7 0 .2.2.4.2.5.1.1.1.2 0 .3.1.2 0 .2 0 .2z"/><path d="m-202.2 292c-.5-.2-.9-1.3-.6-1.9.1-.3.4-.5.8-.3.3.1.5.2.6.3l.5-.5c.4-.3.7-.1.9.1.3.5.3 1.7-.1 2-.1.1-.3.1-.3 0-.1-.1-.1-.3 0-.3.1-.2.2-1.1 0-1.3 0 0 0-.1-.2 0-.5.3-.5.5-.5.5 0 .1-.1.2-.2.2s-.2-.1-.3-.2c0 0-.1-.2-.6-.3-.2-.1-.2 0-.2 0-.2.3.1 1.2.3 1.3.1 0 .2.2.1.3 0 0-.1.1-.2.1z"/><path d="m-202 293.8c-.5-.2-.9-1.3-.6-1.9.1-.3.4-.5.8-.3.3.1.5.2.6.3l.5-.5c.4-.2.7-.1.9.1.3.5.3 1.7-.1 1.9-.1.1-.3.1-.3-.1-.1-.1-.1-.3 0-.3.1-.1.2-1.1 0-1.3 0 0 0-.1-.2 0-.5.3-.5.5-.5.5 0 .1-.1.2-.2.2s-.2-.1-.3-.2c0 0-.1-.1-.6-.3-.1-.1-.2 0-.2 0-.2.3.1 1.2.3 1.3.1.1.2.2.1.3 0 .2-.1.3-.2.3z"/><path d="m-201.8 295.6c-.5-.2-.9-1.3-.6-1.9.1-.3.4-.5.8-.3.3.1.5.2.6.3l.5-.5c.4-.3.7-.1.9.1.3.5.3 1.7-.1 1.9-.1.1-.2.1-.3 0s-.1-.3 0-.3c.1-.1.2-1.1 0-1.3 0 0 0-.1-.2 0-.4.4-.5.6-.5.6 0 .1-.1.2-.2.2s-.2-.1-.3-.2c0 0-.1-.1-.6-.3-.1-.1-.2 0-.2 0-.2.3.1 1.2.3 1.3.1 0 .2.2.1.3 0 0-.1.1-.2.1z"/><path d="m-200.6 297.6c-1.1 0-1.7-1.1-1.7-1.8 0-.2 0-.4.1-.5.1-.2.4-.3.7-.3.3.1.5.2.7.3.1-.1.3-.3.6-.4.5-.2 1 .2 1.1.8.1.7-.3 1.7-1.3 1.9zm-1-2.1s-.1 0-.1.1-.1.2-.1.3c0 .5.4 1.3 1.2 1.3h.1c.7-.2 1-.9.9-1.4 0-.3-.2-.5-.4-.5-.4.2-.5.4-.5.5s-.1.2-.2.3c-.1 0-.2-.1-.3-.2 0-.1 0-.3-.6-.4zm2 7.3c-.1 0-.2-.1-.2-.2l-.6-5.2c0-.1.1-.2.2-.3.1 0 .2.1.3.2l.6 5.2c0 .2-.1.3-.3.3zm-.7-.1c-.1 0-.2-.1-.2-.2l-.6-5.1c0-.1.1-.2.2-.3.1 0 .2.1.3.2l.6 5.1c0 .2-.1.3-.3.3zm3.3-12.8c-.1 0-.1 0-.2-.1s-.5-.5-.3-1c.1-.3.3-.5.4-.7.1-.1.2-.3.3-.5 0-.1.1-.1.2-.1s.2 0 .2.1c.1.2.2.3.3.4.2.2.3.4.5.9s-.3 1-.3 1c-.1.1-.2.1-.3 0s-.1-.2 0-.3.3-.4.2-.5c-.1-.3-.3-.5-.4-.7l-.1-.1c-.1.1-.1.2-.2.2-.1.2-.2.3-.4.6-.1.2.1.4.2.5s.1.2-.1.3z"/><path d="m-197.6 291.4c-.5-.2-.7-1.4-.5-1.9.1-.3.4-.5.9-.2.3.2.5.3.7.4.1-.1.3-.3.7-.4.5-.2.8 0 .9.2.3.5 0 1.7-.4 1.9-.1.1-.3 0-.3-.1-.1-.1 0-.3.1-.3.2-.1.4-.9.2-1.3 0 0-.1-.1-.3 0-.6.3-.7.5-.7.5 0 .1-.1.2-.2.2s-.2-.1-.2-.2c0 0-.1-.2-.6-.4-.2-.1-.2 0-.3 0-.2.3 0 1.2.2 1.3.1.1.2.2.1.3z"/><path d="m-197.6 293.2c-.5-.2-.7-1.4-.5-1.9.1-.3.4-.5.9-.2.3.2.5.3.7.4.1-.1.3-.3.7-.4.3-.2.6-.1.7 0 .2.2.3.5.3 1 0 .3-.1 1-.5 1.2-.1.1-.3 0-.3-.1-.1-.1 0-.3.1-.3.2-.1.4-.9.2-1.3 0 0-.1-.1-.2 0-.6.3-.7.5-.7.5 0 .1-.1.2-.2.2s-.2-.1-.2-.3c0 0-.1-.2-.6-.4-.2-.1-.2 0-.3 0-.2.3 0 1.2.2 1.3.1.1.2.2.1.3z"/><path d="m-197.6 295c-.5-.2-.7-1.4-.5-1.9.1-.3.4-.5.9-.2.3.2.5.3.7.4.1-.1.3-.3.7-.4.5-.2.8 0 .9.2.3.5 0 1.7-.4 1.9-.1.1-.3 0-.3-.1-.1-.1 0-.3.1-.3.2-.1.4-.9.2-1.3 0 0-.1-.1-.3 0-.6.3-.7.5-.7.5 0 .1-.1.2-.2.2s-.2-.1-.2-.3c0 0-.1-.2-.6-.4-.2-.1-.2 0-.3 0-.2.3 0 1.2.2 1.3.1.1.2.2.1.3s-.2.1-.3.1z"/><path d="m-196.5 297.3c-1.2-.1-1.7-1.2-1.7-1.9 0-.6.4-1 1-.8.3.1.6.2.7.4.1-.1.4-.3.7-.4.5-.1 1 .2 1 .9.1.7-.5 1.6-1.7 1.8zm-1-2.3c-.2 0-.2.3-.2.4 0 .5.4 1.3 1.2 1.4.9-.1 1.3-.9 1.2-1.3 0-.2-.1-.5-.4-.4-.5.1-.6.3-.6.4s-.1.2-.2.2-.2-.1-.2-.2-.1-.3-.6-.4c-.1-.1-.1-.1-.2-.1zm1.4 7.8c-.1 0-.2-.1-.2-.2v-5.6c0-.1.1-.2.2-.2s.2.1.2.2v5.6c0 .1-.1.2-.2.2zm-.8 0c-.1 0-.2-.1-.2-.2v-5.7c0-.1.1-.2.2-.2s.2.1.2.2v5.7c.1.1-.1.2-.2.2zm10.2-10.1c-.1 0-.2 0-.2-.1-.1-.2-.1-.3 0-.4s.3-.2.3-.4c0-.3-.1-.5-.1-.7 0-.1 0-.2-.1-.3h-.1c-.1.2-.2.4-.4.6-.1.1 0 .4 0 .6 0 .1 0 .3-.1.3s-.3 0-.3-.1-.2-.7.1-1 .4-.5.7-.7c.1-.1.2-.2.4-.3.1-.1.2-.1.2 0 .1 0 .1.1.2.2 0 .3.1.5.1.6.1.2.1.4.1.8 0 .5-.5.8-.5.9-.2-.1-.3 0-.3 0zm0 1.6c-.1 0-.2-.1-.2-.2s.1-.3.2-.3c.2-.1.6-.8.5-1.2 0 0 0-.1-.2-.1-.5.1-.7.2-.7.2 0 .1-.2.2-.3.1-.1 0-.2-.2-.2-.3 0 0 0-.2-.4-.6l-.2.2c-.2.4-.2.9-.1 1s.1.2 0 .3-.3.1-.3 0c-.4-.2-.2-1.4.2-1.8.2-.2.5-.2.8.1.2.2.3.4.4.6.2-.1.4-.1.7-.2.4-.1.7.1.7.5.1.5-.4 1.6-.9 1.7z"/><path d="m-187.2 296c-.1 0-.2-.1-.2-.2s.1-.3.2-.3c.2-.1.6-.9.5-1.2 0 0 0-.1-.2 0-.5.1-.7.2-.7.2 0 .1-.2.2-.3.1-.1 0-.2-.2-.2-.3 0 0 0-.2-.4-.6l-.1-.1-.2.2c-.2.4-.2.9-.1 1s.1.2 0 .3-.3.1-.3 0c-.3-.3-.1-1.6.3-1.9.2-.2.5-.2.8.1.2.2.3.4.4.6.1-.1.4-.1.7-.2.5-.1.7.2.7.5.1.6-.4 1.7-.9 1.8z"/><path d="m-187.7 297.7c-.1 0-.2-.1-.2-.2s.1-.3.2-.3c.2-.1.6-.9.5-1.2 0 0 0-.1-.2 0-.6.1-.7.2-.7.2 0 .1-.2.2-.3.1-.1 0-.2-.2-.1-.3 0 0 0-.2-.4-.6l-.1-.1-.2.2c-.2.4-.2.9-.1 1s.1.2 0 .3-.3.1-.3 0c-.3-.4-.1-1.6.3-1.9.2-.2.5-.2.8.1.2.2.3.4.4.6.1-.1.4-.1.7-.2.5-.1.7.2.7.5 0 .6-.5 1.7-1 1.8z"/><path d="m-189 299.5c-.1 0-.3 0-.4-.1-.9-.5-1.1-1.4-1-2.1.2-.7.8-1 1.2-.7.3.2.4.4.5.5.2.1.4 0 .7 0s.4.1.5.2.1.3.1.5c.1.7-.6 1.7-1.6 1.7zm-.5-2.5c-.1 0-.3.2-.3.5-.1.5 0 1.2.7 1.5h.2c.7 0 1.1-.7 1.1-1.2v-.2h-.1c-.4 0-.6.1-.6.2s-.2.2-.3.1c-.1 0-.2-.1-.2-.3 0-.1 0-.3-.5-.6z"/><path d="m-190.6 302.5c-.2-.1-.3-.2-.2-.3l1-3.2c0-.1.2-.2.3-.2s.2.2.2.3l-1 3.2c-.1.1-.2.2-.3.2zm.7-.1c-.2 0-.3-.2-.2-.3l.8-2.9c0-.1.2-.2.3-.2s.2.2.2.3l-.9 2.9c0 .1-.1.2-.2.2zm-1.1-12c-.1 0-.1 0-.2-.1s-.1-.2 0-.3.3-.3.2-.5c0-.3-.1-.5-.2-.7 0-.1-.1-.1-.1-.2l-.1.1c-.2.2-.3.4-.5.7-.1.2.1.4.1.5.1.1 0 .3-.1.3-.1.1-.3 0-.3-.1s-.4-.6-.2-1 .3-.6.6-.8c.1-.1.2-.2.3-.4.1-.1.1-.1.2-.1s.2.1.2.2c.1.3.2.4.2.6.1.2.2.4.3.8.1.5-.3.9-.4 1z"/><path d="m-190.7 292c-.1 0-.2-.1-.2-.2s0-.3.1-.3c.2-.1.4-1 .3-1.3 0 0 0-.1-.2 0-.5.2-.6.4-.6.4 0 .1-.1.2-.3.2-.1 0-.2-.1-.2-.3 0 0-.1-.2-.5-.5-.1-.1-.2-.1-.2 0-.2.2-.2 1.2 0 1.3.1.1.1.2 0 .3s-.2.1-.3 0c-.4-.3-.4-1.5-.1-2 .2-.2.5-.3.8-.1s.4.3.5.5c.1-.1.3-.2.6-.3.4-.2.7 0 .8.3.3.7 0 1.8-.5 2z"/><path d="m-190.9 293.8c-.1 0-.2-.1-.2-.1-.1-.1 0-.3.1-.3.2-.1.4-1 .3-1.3 0 0 0-.1-.2 0-.5.2-.6.4-.6.4 0 .1-.1.2-.3.2-.1 0-.2-.1-.2-.3 0 0-.1-.2-.5-.5-.1-.1-.2-.1-.2 0-.2.2-.2 1.2 0 1.3.1.1.1.2 0 .3s-.2.1-.3 0c-.4-.3-.4-1.5-.1-2 .1-.2.4-.3.8 0 .3.2.4.3.5.5.1-.1.3-.2.6-.3.4-.2.7 0 .8.3.3.4 0 1.6-.5 1.8z"/><path d="m-191.1 295.6c-.1 0-.2-.1-.2-.2s0-.3.1-.3c.2-.1.4-1 .3-1.3 0 0 0-.1-.2 0-.6.2-.7.4-.7.4 0 .1-.1.2-.3.2-.1 0-.2-.1-.2-.3 0 0-.1-.2-.5-.5-.1-.1-.2-.1-.2 0-.2.2-.2 1.2 0 1.3.1.1.1.2 0 .3s-.2.1-.3 0c-.4-.3-.4-1.5-.1-1.9.2-.2.5-.4.9-.1.3.2.4.3.5.5.1-.1.3-.2.6-.3.4-.2.7 0 .8.3.3.5 0 1.7-.5 1.9z"/><path d="m-192.3 297.6h-.1c-1.1-.3-1.5-1.2-1.4-1.9s.6-1 1.1-.8c.3.1.5.3.6.4.1-.1.3-.2.6-.3.5-.1.8.2.8.8.1.8-.5 1.8-1.6 1.8zm-.7-2.3c-.1 0-.3.2-.3.5-.1.5.2 1.2 1 1.4.8 0 1.2-.9 1.2-1.3 0-.1 0-.4-.2-.3-.5.1-.6.3-.6.3 0 .1-.2.2-.3.2s-.2-.1-.2-.2v-.1c0-.1-.1-.2-.5-.4zm-.3 7.5c-.2 0-.3-.1-.2-.3l.5-5.2c0-.1.1-.2.3-.2.1 0 .2.1.2.3l-.6 5.2c0 .1-.1.2-.2.2zm.6-.1c-.2 0-.3-.1-.2-.3l.6-5.1c0-.1.1-.2.3-.2.1 0 .2.1.2.3l-.6 5.1c0 .1-.1.2-.3.2z"/><path d="m-196.7 305c-5.4 0-10.4-1.5-10.4-2.7 0-.1.1-.2.2-.2s.2.1.2.2c0 .5 4.1 2.2 9.9 2.2s9.9-1.7 9.9-2.3c0-.1.1-.2.2-.2s.2.1.2.2c.1 1.3-4.9 2.8-10.2 2.8zm0 2.2c-5.3 0-10.1-1.5-10.1-2.7 0-.1.1-.2.2-.2s.2.1.2.2c0 .6 3.9 2.3 9.6 2.3 5.2 0 9-1.4 9.6-2.2.1-.1.2-.1.3-.1.1.1.1.2.1.3-.7 1-4.8 2.4-9.9 2.4zm0 2.2c-5.3 0-9.6-1.5-9.6-2.7 0-.1.1-.2.2-.2s.2.1.2.2c0 .5 3.2 2.2 9.1 2.2 5 0 8.5-1.1 9.1-1.9.1-.1.2-.1.3-.1.1.1.1.2.1.3-.6 1.1-4.4 2.2-9.4 2.2zm0 2.2c-4.7 0-7.7-1.1-8.5-2.1-.1-.1-.1-.3 0-.3.1-.1.2-.1.3 0 .6.8 3.3 1.9 8.1 1.9s7.9-1.2 8.4-2.1c.1-.1.2-.1.3-.1.1.1.1.2.1.3-.5 1.1-3.7 2.4-8.7 2.4z"/><path d="m-197.3 313.4c-1 0-1.8-.7-2-8.7 0-.1.1-.2.2-.2s.2.1.2.2c.2 7.2.9 8.2 1.6 8.2.1 0 .2.1.2.2.1.2 0 .3-.2.3zm-2-.1c-.1 0-.1 0 0 0-1.9-.6-2.8-1.9-3.3-9.1 0-.1.1-.2.2-.3.1 0 .2.1.3.2.5 6.8 1.3 8.1 2.9 8.6.1 0 .2.2.2.3-.2.2-.2.3-.3.3zm-2.7-.6h-.1c-1.9-1.3-2.6-5-3.1-8.2l-.2-.9c0-.1.1-.3.2-.3s.3.1.3.2l.2.9c.6 3.2 1.2 6.7 2.9 7.9.1.1.1.2.1.3-.1.1-.2.1-.3.1zm5.8.7c-.1 0-.2-.1-.2-.2s.1-.2.2-.3c.6 0 1.4-.1 1.3-8.2 0-.1.1-.2.2-.2s.2.1.2.2c.1 8-.6 8.6-1.7 8.7zm1.8-.1c-.1 0-.2-.1-.2-.2s0-.3.2-.3c2.2-.6 2.8-1.5 3.3-8.7 0-.1.1-.3.3-.2.1 0 .2.1.2.3-.6 7.1-1.1 8.4-3.8 9.1.1 0 .1 0 0 0z"/><path d="m-191.7 312.9c-.1 0-.2-.1-.2-.2s0-.3.1-.3c1.8-.7 2.9-3.6 3.5-9.1 0-.1.1-.2.3-.2.1 0 .2.1.2.3-.6 5.8-1.8 8.7-3.9 9.5.1 0 .1 0 0 0zm-15.2-12c-.1 0-.1 0-.2-.1s-1.5-1.9-1.5-3.4c0-.5.2-.8.6-1.1.8-.4 2.1-.2 2.3-.1.1.1.1.2.1.3-.1.1-.2.1-.3.1-.2-.1-1.3-.3-1.9.1-.2.2-.3.5-.3.7 0 1.3 1.4 3.1 1.4 3.1.1.1.1.3 0 .3-.1.1-.1.1-.2.1z"/><path d="m-205.9 300.6c-.1 0-.1 0-.2-.1-.5-.7-1.6-2.4-1.4-2.9 0-.1.1-.2.2-.3h.1c.6-.2.8-.3 2 .1.1 0 .2.2.2.3s-.2.2-.3.2c-1.1-.3-1.2-.3-1.7-.1 0 .3.6 1.4 1.4 2.5.1.1.1.3-.1.3zm18.3.1c-.2-.1-.2-.2-.2-.3.8-1.2 1.4-2.4 1.3-2.6-.1-.1-.5-.3-1.1-.1-.1 0-.3 0-.3-.2 0-.1 0-.3.2-.3.8-.2 1.4 0 1.6.3.4.5-.6 2.2-1.3 3.2z"/><path d="m-196.7 313.4c-5.4 0-6.7-1.2-7.8-2.6-.4-.5-2.4-3.6-2.7-9.9 0-.1 0-.3.1-.4s.2-.1.3-.1c.1.1.1.2.1.3v.1c.3 6.2 2.2 9.1 2.6 9.6.8 1.1 1.8 2.4 7.4 2.4 4.7 0 6-.7 7.1-1.6 1-.8 2.4-4.4 2.9-10.4l-.1-.1c-.1-.1-.1-.2 0-.3s.2-.1.3 0 .3.3.3.5c-.5 5.4-1.7 9.7-3.1 10.8-1.2 1-2.6 1.7-7.4 1.7zm-10-21.3c-.1 0-.2 0-.2-.1-.2-.4-.6-1-1.2-.9-.1 0-.2-.1-.3-.2 0-.1.1-.2.2-.3.7-.1 1.3.3 1.7 1.2.1.1 0 .3-.2.3zm.3-1.2c-.1 0-.2-.1-.2-.2 0 0-.3-1.1-1-1.2-.1 0-.2-.1-.2-.3 0-.1.1-.2.3-.2 1 .1 1.4 1.5 1.5 1.5-.2.2-.2.4-.4.4zm0-.3c-.1 0-.2 0-.2-.1 0 0-.5-.8-.1-1.7.1-.1.2-.2.3-.1s.2.2.1.3c-.3.7 0 1.2 0 1.2.1.1 0 .3-.1.3.1.1 0 .1 0 .1zm-.2 2c-.1 0-.2-.1-.2-.2 0 0-.1-.2-.7-.4-.1 0-.2-.2-.2-.3s.2-.2.3-.2c1 .3 1.1.7 1.1.8-.1.1-.2.3-.3.3zm1.2-1.1c-.1 0-.2-.1-.2-.2 0 0-.3-.9.4-1.7.1-.1.2-.1.3 0s.1.2 0 .3c-.5.7-.3 1.3-.3 1.3 0 .1 0 .3-.2.3zm3.3-1.7c-.1 0-.2-.1-.2-.2 0 0-.4-1-1.1-1.1-.1 0-.2-.1-.2-.2s.1-.2.2-.2c1 0 1.5 1.3 1.6 1.4-.1.1-.1.2-.3.3zm.4-1.3c-.1 0-.2-.1-.2-.2 0 0-.2-1.1-.9-1.3-.1 0-.2-.1-.2-.3 0-.1.1-.2.3-.2 1 .2 1.3 1.6 1.3 1.6 0 .3-.1.4-.3.4z"/><path d="m-201.6 288.3c-.1 0-.2 0-.2-.1 0 0-.4-.8.1-1.7.1-.1.2-.2.3-.1s.2.2.1.3c-.4.7-.1 1.2-.1 1.2.1.1 0 .3-.1.3 0 0-.1.1-.1.1zm-.6 2c-.1 0-.2-.1-.2-.2 0 0-.1-.2-.7-.5-.1 0-.2-.2-.1-.3 0-.1.1-.2.2-.1.9.3 1 .7 1 .9 0 .1-.1.2-.2.2zm1.3-1c-.1 0-.2-.1-.2-.2 0 0-.2-.9.6-1.6.1-.1.2-.1.3 0s.1.2 0 .3c-.6.5-.4 1.2-.4 1.2 0 .2-.1.3-.3.3zm3.7-.1c-.1 0-.2-.1-.2-.2 0 0-.2-1.1-.9-1.3-.1 0-.2-.1-.2-.3 0-.1.2-.2.3-.2 1 .2 1.3 1.6 1.3 1.7s-.1.3-.3.3zm.6-1.1c-.1 0-.2-.1-.2-.2 0 0 0-1.2-.7-1.4-.1-.1-.2-.2-.1-.3s.2-.2.3-.1c1 .4 1 1.8 1 1.9 0 0-.1.1-.3.1z"/><path d="m-196.5 287.8c-.1 0-.2-.1-.2-.2 0 0-.3-.9.4-1.6.1-.1.2-.1.3 0s.1.2 0 .3c-.5.5-.3 1.2-.3 1.2.1.1 0 .3-.2.3.1 0 .1 0 0 0zm-.9 1.8c-.2 0-.2-.1-.2-.3 0 0 0-.3-.6-.6-.1-.1-.1-.2-.1-.3.1-.1.2-.1.3-.1.9.5.8 1 .8 1.1.1.1 0 .2-.2.2zm1.5-.7c-.1 0-.2-.1-.2-.2 0 0 0-.9.9-1.5.1-.1.3 0 .3.1.1.1 0 .3-.1.3-.7.4-.7 1-.7 1 .1.2 0 .3-.2.3zm9.5 3.3c-.2-.1-.3-.2-.2-.3 0-.1.7-1.2 1.8-1 .1 0 .2.1.2.3 0 .1-.1.2-.3.2-.7-.1-1.3.8-1.3.8 0-.1-.1 0-.2 0zm-.1-1.3c-.1 0-.1-.1 0 0-.2-.1-.3-.2-.2-.3 0-.1.5-1.4 1.6-1.4.1 0 .2.1.2.2s-.1.2-.2.2c-.7 0-1.1 1.1-1.1 1.1-.1.1-.2.2-.3.2z"/><path d="m-186.5 290.6c-.1 0-.1 0-.1-.1-.1-.1-.1-.2 0-.3 0 0 .4-.5.1-1.2 0-.1 0-.3.1-.3s.3 0 .3.1c.4 1-.1 1.7-.2 1.7-.1.1-.2.1-.2.1zm.2 2.1c-.1 0-.1 0 0 0-.2 0-.3-.2-.2-.3 0-.1.2-.5 1.1-.7.1 0 .3.1.3.2s-.1.3-.2.3c-.7.1-.8.3-.8.3 0 .1-.1.2-.2.2zm-1.2-1.2c-.2-.1-.3-.2-.2-.3 0 0 .2-.6-.3-1.2-.1-.1-.1-.3 0-.3.1-.1.2-.1.3 0 .7.8.3 1.7.3 1.7.1.1 0 .1-.1.1zm-3.2-1.7c-.1 0-.1 0 0 0-.2 0-.3-.2-.2-.3 0-.1.4-1.4 1.4-1.5.1 0 .2.1.3.2 0 .1-.1.2-.2.3-.7.1-1 1.2-1 1.2-.1 0-.2.1-.3.1zm-.4-1.2c-.1 0-.1 0 0 0-.1 0-.2-.1-.2-.3 0-.1.1-1.5 1.1-1.8.1 0 .3 0 .3.2 0 .1 0 .3-.2.3-.7.2-.8 1.4-.8 1.4 0 .1-.1.2-.2.2z"/><path d="m-191.2 288.4c-.2-.1-.3-.2-.2-.3 0 0 .2-.6-.2-1.2-.1-.1-.1-.3 0-.3.1-.1.3-.1.3 0 .6.8.3 1.6.3 1.6 0 .1-.1.2-.2.2zm.6 1.9c-.1 0-.2-.1-.2-.2s0-.5.9-1c.1-.1.3 0 .3.1.1.1 0 .3-.1.3-.6.3-.6.5-.6.5s-.3.3-.3.3zm-1.5-.9c-.2 0-.3-.1-.2-.3 0-.2.1-.6-.6-1.1-.1 0-.1-.1 0-.2s.2-.1.3-.1c.9.6.8 1.3.8 1.5 0 .1-.1.2-.3.2z"/><path d="m-222.6 357.9c-37.6-14.6-43.3-46.8-43.4-64.8v-36.8c0-.1.1-.2.1-.3.1-.1.2-.1.3-.1h85.8c.1 0 .2.1.3.1.1.1.1.2.1.3v36.8c0 18-5.3 50-43.2 64.8zm-42.4-101.1v36.3c0 17.7 5.5 49.6 42.4 63.7 36.8-14.2 42.4-46 42.4-63.7v-36.3z"/></g><path d="m-179.8 255.9c.1 0 .2.1.3.1.1.1.1.2.1.3v36.8c0 18-5.3 50-43.2 64.8-37.6-14.6-43.3-46.8-43.4-64.8v-36.8c0-.1.1-.2.1-.3.1-.1.2-.1.3-.1zm0-2h-85.8c-.7 0-1.3.2-1.7.7l-.6.6v.5c-.1.2-.1.4-.1.7v36.8c.1 18.5 6 51.7 44.7 66.7l.7.3.7-.3c17.1-6.7 29.5-17.5 36.9-32.2 5-10.1 7.6-21.7 7.6-34.5v-36.8c0-.7-.2-1.3-.7-1.7l-.6-.6h-.5c-.1-.1-.3-.2-.6-.2z" fill="#fff"/></svg>